<?xml version="1.0" encoding="UTF-8"?>
<!DOCTYPE svg PUBLIC "-//W3C//DTD SVG 1.1//EN" "http://www.w3.org/Graphics/SVG/1.1/DTD/svg11.dtd">
<svg xmlns="http://www.w3.org/2000/svg" version="1.1" width="1890px" height="1417px" style="shape-rendering:geometricPrecision; text-rendering:geometricPrecision; image-rendering:optimizeQuality; fill-rule:evenodd; clip-rule:evenodd" xmlns:xlink="http://www.w3.org/1999/xlink">
<g><path style="opacity:0.071" fill="#88837a" d="M 858.5,668.5 C 856.833,668.5 855.167,668.5 853.5,668.5C 851.915,667.526 850.915,666.026 850.5,664C 844.167,663.333 837.833,663.333 831.5,664C 829.922,665.094 828.255,665.928 826.5,666.5C 826.721,665.265 827.388,664.265 828.5,663.5C 832.511,662.773 836.511,662.107 840.5,661.5C 844.489,662.107 848.489,662.773 852.5,663.5C 854.641,665.204 856.641,666.87 858.5,668.5 Z"/></g>
<g><path style="opacity:0.251" fill="#82796d" d="M 514.5,666.5 C 516.451,666.227 517.951,666.893 519,668.5C 520.231,667.892 521.564,667.559 523,667.5C 536.99,668.106 550.823,668.773 564.5,669.5C 550.833,669.5 537.167,669.5 523.5,669.5C 520.5,669.5 517.5,669.5 514.5,669.5C 514.5,668.5 514.5,667.5 514.5,666.5 Z"/></g>
<g><path style="opacity:0.576" fill="#8f887d" d="M 630.5,666.5 C 633.077,666.455 635.077,667.455 636.5,669.5C 634.5,669.5 632.5,669.5 630.5,669.5C 630.5,668.5 630.5,667.5 630.5,666.5 Z"/></g>
<g><path style="opacity:0.998" fill="#dedcd8" d="M 853.5,668.5 C 858.316,669.326 863.316,669.826 868.5,670C 869.67,671.755 871.337,672.755 873.5,673C 871.22,673.212 869.22,674.045 867.5,675.5C 866.304,675.154 866.304,674.654 867.5,674C 866.833,673.333 866.167,673.333 865.5,674C 864.565,676.381 864.232,678.881 864.5,681.5C 859.408,681.497 859.408,682.33 864.5,684C 860.67,684.407 860.003,685.74 862.5,688C 862.167,688.333 861.833,688.667 861.5,689C 862.293,692.411 862.793,695.911 863,699.5C 864.799,701.138 865.965,702.971 866.5,705C 864.744,705.202 863.078,705.702 861.5,706.5C 861.709,707.086 862.043,707.586 862.5,708C 864.473,708.495 866.473,708.662 868.5,708.5C 868.5,709.833 868.5,711.167 868.5,712.5C 866.833,712.5 865.167,712.5 863.5,712.5C 864.199,715.573 865.199,718.573 866.5,721.5C 864.234,722.314 861.9,722.814 859.5,723C 863.821,723.499 868.154,723.666 872.5,723.5C 865.167,724.167 857.833,724.833 850.5,725.5C 848.5,725.5 846.5,725.5 844.5,725.5C 844.5,706.5 844.5,687.5 844.5,668.5C 841.85,664.988 838.184,663.655 833.5,664.5C 833.646,666.942 832.813,667.609 831,666.5C 829.559,667.26 828.059,667.926 826.5,668.5C 825.537,668.03 825.537,667.363 826.5,666.5C 828.255,665.928 829.922,665.094 831.5,664C 837.833,663.333 844.167,663.333 850.5,664C 850.915,666.026 851.915,667.526 853.5,668.5 Z"/></g>
<g><path style="opacity:1" fill="#e5e3de" d="M 876.5,668.5 C 898.232,667.851 919.732,668.518 941,670.5C 974.412,670.428 1007.91,670.428 1041.5,670.5C 1018,671.332 994.337,671.832 970.5,672C 967.736,672.532 965.07,673.366 962.5,674.5C 961.833,673.833 961.167,673.167 960.5,672.5C 959.269,673.651 959.269,674.817 960.5,676C 970.517,676.168 980.517,676.668 990.5,677.5C 991.415,678.328 992.081,679.328 992.5,680.5C 991.752,686.47 991.252,692.47 991,698.5C 990.828,691.987 990.328,685.653 989.5,679.5C 984.579,678.858 979.579,678.525 974.5,678.5C 969.449,678.507 964.783,679.173 960.5,680.5C 959.673,685.985 959.173,691.652 959,697.5C 958.667,692.167 958.333,686.833 958,681.5C 956.387,680.378 955.22,680.878 954.5,683C 955.473,688.407 955.807,693.907 955.5,699.5C 953.167,699.5 950.833,699.5 948.5,699.5C 948.666,695.154 948.499,690.821 948,686.5C 947.333,687.167 946.667,687.833 946,688.5C 945.71,686.08 945.21,683.746 944.5,681.5C 942.884,680.011 940.884,679.011 938.5,678.5C 932.553,677.138 926.553,676.638 920.5,677C 917.675,680.485 914.009,682.152 909.5,682C 908.177,682.816 907.511,683.983 907.5,685.5C 906.342,695.325 906.175,705.325 907,715.5C 907.5,717.333 908.667,718.5 910.5,719C 913.752,719.791 916.752,719.291 919.5,717.5C 920.867,718.225 922.2,718.892 923.5,719.5C 924.29,720.794 925.29,721.961 926.5,723C 947.831,723.5 969.164,723.667 990.5,723.5C 993.167,723.5 995.833,723.5 998.5,723.5C 1006.84,723.666 1015.17,723.5 1023.5,723C 1024.31,722.692 1024.97,722.192 1025.5,721.5C 1026.48,709.217 1026.81,696.884 1026.5,684.5C 1030.47,683.707 1034.47,683.04 1038.5,682.5C 1040.1,682.551 1041.6,682.884 1043,683.5C 1044.12,688.893 1044.62,694.393 1044.5,700C 1044.49,705.216 1043.83,710.049 1042.5,714.5C 1042.5,704.833 1042.5,695.167 1042.5,685.5C 1038.5,685.5 1034.5,685.5 1030.5,685.5C 1030.5,691.833 1030.5,698.167 1030.5,704.5C 1030.18,708.702 1030.52,712.702 1031.5,716.5C 1034.5,716.5 1037.5,716.5 1040.5,716.5C 1040.61,717.117 1040.94,717.617 1041.5,718C 1036.91,718.197 1032.41,718.697 1028,719.5C 1027.31,720.332 1027.48,720.998 1028.5,721.5C 1030.9,722.018 1032.9,723.185 1034.5,725C 1057.83,725.5 1081.16,725.667 1104.5,725.5C 1067.34,726.498 1030,726.832 992.5,726.5C 992.611,725.883 992.944,725.383 993.5,725C 964.982,724.725 936.482,724.558 908,724.5C 905.163,724.316 902.663,723.316 900.5,721.5C 902.404,720.234 903.737,718.567 904.5,716.5C 904.172,710.674 904.006,705.007 904,699.5C 902.796,700.471 902.296,701.471 902.5,702.5C 899.374,701.082 898.707,698.916 900.5,696C 899.801,690.573 898.301,685.407 896,680.5C 895.899,683.7 895.232,686.7 894,689.5C 892.956,687.285 892.29,684.952 892,682.5C 890.771,684.947 889.271,685.113 887.5,683C 889.113,680.772 889.78,678.272 889.5,675.5C 886.612,675.22 885.112,676.553 885,679.5C 884.64,677.392 883.973,675.392 883,673.5C 882.692,674.308 882.192,674.975 881.5,675.5C 879.851,674.294 878.351,672.961 877,671.5C 876.667,671.833 876.333,672.167 876,672.5C 875.544,671.256 876.044,670.423 877.5,670C 876.944,669.617 876.611,669.117 876.5,668.5 Z"/></g>
<g><path style="opacity:1" fill="#f7f3df" d="M 512.5,666.5 C 512.217,667.289 511.717,667.956 511,668.5C 509.657,688.148 508.823,707.815 508.5,727.5C 504.629,727.185 500.962,727.518 497.5,728.5C 496.167,728.5 494.833,728.5 493.5,728.5C 493.337,726.143 493.503,723.81 494,721.5C 494.494,723.134 494.66,724.801 494.5,726.5C 498.167,726.5 501.833,726.5 505.5,726.5C 505.889,707.156 506.556,687.823 507.5,668.5C 505.409,668.318 503.409,668.652 501.5,669.5C 500.614,668.675 500.281,667.675 500.5,666.5C 504.6,665.995 508.6,665.995 512.5,666.5 Z"/></g>
<g><path style="opacity:1" fill="#dfd9cc" d="M 824.5,669.5 C 825.832,678.475 826.498,687.809 826.5,697.5C 826.494,707.075 826.16,716.575 825.5,726C 829.594,727.364 833.761,728.53 838,729.5C 842.342,729.17 846.675,728.837 851,728.5C 851.483,729.448 851.649,730.448 851.5,731.5C 844.412,731.795 837.412,731.462 830.5,730.5C 828.692,729.093 826.692,727.926 824.5,727C 809.447,726.168 794.447,726.668 779.5,728.5C 768.733,728.67 757.9,728.337 747,727.5C 745.284,727.748 743.784,728.415 742.5,729.5C 740.664,728.972 738.997,728.306 737.5,727.5C 740.807,726.949 744.14,726.616 747.5,726.5C 747.5,707.5 747.5,688.5 747.5,669.5C 773.167,669.5 798.833,669.5 824.5,669.5 Z"/></g>
<g><path style="opacity:0.749" fill="#f0ebdd" d="M 1203.5,670.5 C 1239.86,670.382 1275.86,671.049 1311.5,672.5C 1302.68,673.33 1293.68,673.83 1284.5,674C 1285.71,675.113 1285.71,676.28 1284.5,677.5C 1287.17,678.833 1287.17,680.167 1284.5,681.5C 1285.38,682.971 1286.71,683.804 1288.5,684C 1287.27,685.587 1287.61,686.921 1289.5,688C 1288.82,691.018 1288.82,694.185 1289.5,697.5C 1287.63,698.797 1287.3,700.297 1288.5,702C 1288.35,703.727 1287.69,703.894 1286.5,702.5C 1285.45,703.438 1284.78,704.605 1284.5,706C 1285.62,707.556 1286.62,709.056 1287.5,710.5C 1287.07,711.293 1286.74,712.127 1286.5,713C 1288.31,715.319 1289.31,717.652 1289.5,720C 1288.14,721.682 1286.64,721.849 1285,720.5C 1283.62,721.551 1282.62,722.884 1282,724.5C 1280.93,723.809 1279.77,723.309 1278.5,723C 1279.42,722.722 1280.08,722.222 1280.5,721.5C 1282.86,720.611 1283.03,719.278 1281,717.5C 1279.64,716.62 1278.14,716.286 1276.5,716.5C 1276.39,715.883 1276.06,715.383 1275.5,715C 1276.76,714.583 1277.42,713.75 1277.5,712.5C 1281.07,712.592 1282.24,710.926 1281,707.5C 1279.05,706.891 1277.22,706.224 1275.5,705.5C 1276.1,704.1 1277.1,703.1 1278.5,702.5C 1281.08,701.952 1282.08,700.285 1281.5,697.5C 1280.17,697.5 1278.83,697.5 1277.5,697.5C 1275.51,696.528 1275.17,695.195 1276.5,693.5C 1277.17,693.5 1277.5,693.167 1277.5,692.5C 1280.73,691.994 1281.4,690.328 1279.5,687.5C 1279.2,686.85 1278.86,686.183 1278.5,685.5C 1280.51,684.663 1281.51,683.163 1281.5,681C 1281.61,679.301 1280.95,678.134 1279.5,677.5C 1279.17,677.5 1278.83,677.5 1278.5,677.5C 1272.69,676.51 1266.69,676.177 1260.5,676.5C 1259.83,676.5 1259.17,676.5 1258.5,676.5C 1249.1,676.731 1239.76,676.065 1230.5,674.5C 1228.96,674.453 1227.96,675.12 1227.5,676.5C 1226.53,675.016 1225.19,674.516 1223.5,675C 1220.29,677.866 1219.96,680.866 1222.5,684C 1221.1,685.269 1219.43,685.769 1217.5,685.5C 1218.09,696.859 1218.76,708.192 1219.5,719.5C 1219.5,722.5 1219.5,725.5 1219.5,728.5C 1216.5,728.5 1213.5,728.5 1210.5,728.5C 1208.17,728.5 1205.83,728.5 1203.5,728.5C 1203.5,709.167 1203.5,689.833 1203.5,670.5 Z"/></g>
<g><path style="opacity:1" fill="#dbd9d6" d="M 1094.5,669.5 C 1098.37,669.185 1102.04,669.518 1105.5,670.5C 1104.52,674.298 1104.18,678.298 1104.5,682.5C 1104.5,696.833 1104.5,711.167 1104.5,725.5C 1081.16,725.667 1057.83,725.5 1034.5,725C 1032.9,723.185 1030.9,722.018 1028.5,721.5C 1027.48,720.998 1027.31,720.332 1028,719.5C 1032.41,718.697 1036.91,718.197 1041.5,718C 1040.94,717.617 1040.61,717.117 1040.5,716.5C 1041.5,716.167 1042.17,715.5 1042.5,714.5C 1043.83,710.049 1044.49,705.216 1044.5,700C 1044.62,694.393 1044.12,688.893 1043,683.5C 1041.6,682.884 1040.1,682.551 1038.5,682.5C 1034.47,683.04 1030.47,683.707 1026.5,684.5C 1026.48,681.821 1025.14,680.488 1022.5,680.5C 1018.5,679.167 1014.5,679.167 1010.5,680.5C 1009.5,680.833 1008.83,681.5 1008.5,682.5C 1008.17,682.5 1007.83,682.5 1007.5,682.5C 1006.82,690.568 1006.15,698.735 1005.5,707C 1006.34,708.011 1006.67,709.178 1006.5,710.5C 985.489,711.301 964.489,711.301 943.5,710.5C 943.173,700.652 943.506,690.986 944.5,681.5C 945.21,683.746 945.71,686.08 946,688.5C 946.667,687.833 947.333,687.167 948,686.5C 948.499,690.821 948.666,695.154 948.5,699.5C 950.833,699.5 953.167,699.5 955.5,699.5C 955.807,693.907 955.473,688.407 954.5,683C 955.22,680.878 956.387,680.378 958,681.5C 958.333,686.833 958.667,692.167 959,697.5C 959.173,691.652 959.673,685.985 960.5,680.5C 960.5,687.167 960.5,693.833 960.5,700.5C 969.506,700.666 978.506,700.5 987.5,700C 990.116,696.541 990.116,693.041 987.5,689.5C 989.289,686.444 989.956,683.111 989.5,679.5C 990.328,685.653 990.828,691.987 991,698.5C 991.252,692.47 991.752,686.47 992.5,680.5C 992.081,679.328 991.415,678.328 990.5,677.5C 980.517,676.668 970.517,676.168 960.5,676C 959.269,674.817 959.269,673.651 960.5,672.5C 961.167,673.167 961.833,673.833 962.5,674.5C 965.07,673.366 967.736,672.532 970.5,672C 994.337,671.832 1018,671.332 1041.5,670.5C 1059.5,670.669 1077.16,670.336 1094.5,669.5 Z"/></g>
<g><path style="opacity:1" fill="#e5e1d6" d="M 1120.5,669.5 C 1121.83,669.5 1123.17,669.5 1124.5,669.5C 1149.52,670.238 1174.85,670.571 1200.5,670.5C 1200.81,689.501 1201.14,708.501 1201.5,727.5C 1174.33,727.831 1147.33,727.498 1120.5,726.5C 1121.83,717.859 1122.5,708.859 1122.5,699.5C 1122.14,689.793 1122.14,680.293 1122.5,671C 1121.58,670.722 1120.92,670.222 1120.5,669.5 Z"/></g>
<g><path style="opacity:1" fill="#cdc4b5" d="M 844.5,668.5 C 839.5,668.5 834.5,668.5 829.5,668.5C 829.167,687.179 829.5,705.845 830.5,724.5C 835.1,725.443 839.767,725.777 844.5,725.5C 846.5,725.5 848.5,725.5 850.5,725.5C 854.042,725.187 857.375,725.521 860.5,726.5C 857.833,726.5 855.167,726.5 852.5,726.5C 852.784,728.415 852.451,730.081 851.5,731.5C 851.649,730.448 851.483,729.448 851,728.5C 846.675,728.837 842.342,729.17 838,729.5C 833.761,728.53 829.594,727.364 825.5,726C 826.16,716.575 826.494,707.075 826.5,697.5C 826.498,687.809 825.832,678.475 824.5,669.5C 824.158,668.662 823.492,668.328 822.5,668.5C 823.183,666.824 824.517,666.157 826.5,666.5C 825.537,667.363 825.537,668.03 826.5,668.5C 828.059,667.926 829.559,667.26 831,666.5C 832.813,667.609 833.646,666.942 833.5,664.5C 838.184,663.655 841.85,664.988 844.5,668.5 Z"/></g>
<g><path style="opacity:1" fill="#f5e2c3" d="M 729.5,696.5 C 729.5,700.833 729.5,705.167 729.5,709.5C 727.805,710.011 726.139,710.678 724.5,711.5C 727.145,714.909 727.145,718.243 724.5,721.5C 724.5,718.833 724.5,716.167 724.5,713.5C 722.801,713.66 721.134,713.494 719.5,713C 721.066,712.392 722.4,711.558 723.5,710.5C 724.301,708.958 724.634,707.292 724.5,705.5C 723.041,705.567 721.708,705.234 720.5,704.5C 720.389,703.883 720.056,703.383 719.5,703C 721.584,702.303 723.251,701.136 724.5,699.5C 724.657,696.656 723.324,694.989 720.5,694.5C 720.557,693.391 720.89,692.391 721.5,691.5C 723.913,690.32 724.913,688.32 724.5,685.5C 722.194,685.007 719.861,684.674 717.5,684.5C 716.5,684.5 715.5,684.5 714.5,684.5C 714.5,683.5 714.5,682.5 714.5,681.5C 717.518,681.665 720.518,681.498 723.5,681C 725.527,679.604 725.86,677.938 724.5,676C 721.144,674.078 717.978,674.245 715,676.5C 711.421,674.119 707.921,674.119 704.5,676.5C 700.989,673.896 697.489,673.896 694,676.5C 685.546,675.678 677.046,675.344 668.5,675.5C 667.833,675.5 667.5,675.167 667.5,674.5C 670.646,673.77 673.646,673.437 676.5,673.5C 686.136,673.791 695.803,674.125 705.5,674.5C 708.833,671.833 712.167,671.833 715.5,674.5C 721.879,670.857 726.213,672.523 728.5,679.5C 726.947,680.439 725.613,681.606 724.5,683C 725.909,684.983 726.909,687.15 727.5,689.5C 726.423,691.729 725.756,694.063 725.5,696.5C 726.833,696.5 728.167,696.5 729.5,696.5 Z"/></g>
<g><path style="opacity:1" fill="#e7e7e4" d="M 876.5,668.5 C 876.611,669.117 876.944,669.617 877.5,670C 876.044,670.423 875.544,671.256 876,672.5C 876.333,672.167 876.667,671.833 877,671.5C 878.351,672.961 879.851,674.294 881.5,675.5C 882.192,674.975 882.692,674.308 883,673.5C 883.973,675.392 884.64,677.392 885,679.5C 885.112,676.553 886.612,675.22 889.5,675.5C 889.78,678.272 889.113,680.772 887.5,683C 889.271,685.113 890.771,684.947 892,682.5C 892.29,684.952 892.956,687.285 894,689.5C 895.232,686.7 895.899,683.7 896,680.5C 898.301,685.407 899.801,690.573 900.5,696C 898.707,698.916 899.374,701.082 902.5,702.5C 902.296,701.471 902.796,700.471 904,699.5C 904.006,705.007 904.172,710.674 904.5,716.5C 903.577,717.303 902.577,717.47 901.5,717C 900.547,715.045 899.213,713.378 897.5,712C 894.934,710.444 892.268,708.944 889.5,707.5C 888.266,705.448 886.6,703.781 884.5,702.5C 880.141,702.829 876.474,701.162 873.5,697.5C 872.048,700.282 872.381,702.782 874.5,705C 872.866,705.494 871.199,705.66 869.5,705.5C 870.378,711.442 871.378,717.442 872.5,723.5C 868.154,723.666 863.821,723.499 859.5,723C 861.9,722.814 864.234,722.314 866.5,721.5C 865.199,718.573 864.199,715.573 863.5,712.5C 865.167,712.5 866.833,712.5 868.5,712.5C 868.5,711.167 868.5,709.833 868.5,708.5C 866.473,708.662 864.473,708.495 862.5,708C 862.043,707.586 861.709,707.086 861.5,706.5C 863.078,705.702 864.744,705.202 866.5,705C 865.965,702.971 864.799,701.138 863,699.5C 862.793,695.911 862.293,692.411 861.5,689C 861.833,688.667 862.167,688.333 862.5,688C 860.003,685.74 860.67,684.407 864.5,684C 859.408,682.33 859.408,681.497 864.5,681.5C 864.232,678.881 864.565,676.381 865.5,674C 866.167,673.333 866.833,673.333 867.5,674C 866.304,674.654 866.304,675.154 867.5,675.5C 869.22,674.045 871.22,673.212 873.5,673C 871.337,672.755 869.67,671.755 868.5,670C 863.316,669.826 858.316,669.326 853.5,668.5C 855.167,668.5 856.833,668.5 858.5,668.5C 864.433,667.553 870.433,667.553 876.5,668.5 Z"/></g>
<g><path style="opacity:1" fill="#e4e0d5" d="M 1337.5,672.5 C 1369.07,672.494 1400.74,672.494 1432.5,672.5C 1434.46,678.75 1435.13,685.416 1434.5,692.5C 1432.56,691.922 1432.22,690.922 1433.5,689.5C 1432.85,687.885 1432.35,686.218 1432,684.5C 1431.2,682.117 1430.03,679.95 1428.5,678C 1428.83,677.667 1429.17,677.333 1429.5,677C 1428.5,676.667 1427.5,676.333 1426.5,676C 1426.83,675.667 1427.17,675.333 1427.5,675C 1424.21,674.679 1421.21,675.513 1418.5,677.5C 1414.5,677.5 1410.5,677.5 1406.5,677.5C 1406.04,676.12 1405.04,675.453 1403.5,675.5C 1399.66,676.794 1395.83,676.794 1392,675.5C 1385.45,676.96 1378.95,677.96 1372.5,678.5C 1371.83,678.5 1371.17,678.5 1370.5,678.5C 1369.08,676.692 1367.08,676.025 1364.5,676.5C 1364.5,679.167 1364.5,681.833 1364.5,684.5C 1361.69,684.588 1360.36,686.088 1360.5,689C 1360.84,690.365 1361.51,691.532 1362.5,692.5C 1361.94,693.939 1361.6,695.439 1361.5,697C 1361.76,699.454 1362.76,701.454 1364.5,703C 1361.89,706.246 1362.22,709.246 1365.5,712C 1364.1,716.316 1364.76,720.316 1367.5,724C 1369.71,724.789 1371.71,724.622 1373.5,723.5C 1375.81,723.007 1378.14,722.674 1380.5,722.5C 1382.5,722.5 1384.5,722.5 1386.5,722.5C 1387.83,722.5 1389.17,722.5 1390.5,722.5C 1392.83,722.5 1395.17,722.5 1397.5,722.5C 1398.5,722.5 1399.5,722.5 1400.5,722.5C 1402.99,722.031 1405.66,722.031 1408.5,722.5C 1409.17,722.5 1409.83,722.5 1410.5,722.5C 1414.88,722.372 1419.21,722.705 1423.5,723.5C 1417.84,723.822 1412.01,723.822 1406,723.5C 1403.72,723.949 1402.22,725.283 1401.5,727.5C 1394.25,729.589 1393.25,728.422 1398.5,724C 1394.08,722.432 1392.08,723.932 1392.5,728.5C 1373.82,728.833 1355.15,728.5 1336.5,727.5C 1335.62,726.749 1334.62,726.249 1333.5,726C 1334.32,724.312 1335.32,724.145 1336.5,725.5C 1336.83,723 1337.17,720.5 1337.5,718C 1335.44,703.205 1335.11,688.371 1336.5,673.5C 1338.77,674.544 1341.1,674.711 1343.5,674C 1341.65,672.872 1339.65,672.372 1337.5,672.5 Z"/></g>
<g><path style="opacity:1" fill="#e2dccc" d="M 610.5,670.5 C 611.619,689.005 611.619,707.671 610.5,726.5C 601.827,726.666 593.16,726.5 584.5,726C 585.833,725 585.833,724 584.5,723C 586.775,720.007 588.775,716.84 590.5,713.5C 588.244,706.475 588.244,699.475 590.5,692.5C 590.077,688.111 589.41,683.778 588.5,679.5C 589.368,675.992 588.035,673.492 584.5,672C 591.346,671.828 598.013,671.328 604.5,670.5C 606.549,669.359 608.549,669.359 610.5,670.5 Z"/></g>
<g><path style="opacity:1" fill="#cd9c62" d="M 557.5,677.5 C 557.845,680.488 556.512,681.821 553.5,681.5C 550.089,681.597 548.755,679.93 549.5,676.5C 552.397,675.227 555.063,675.561 557.5,677.5 Z"/></g>
<g><path style="opacity:1" fill="#f4f0e4" d="M 1336.5,672.5 C 1336.83,672.5 1337.17,672.5 1337.5,672.5C 1339.65,672.372 1341.65,672.872 1343.5,674C 1341.1,674.711 1338.77,674.544 1336.5,673.5C 1335.11,688.371 1335.44,703.205 1337.5,718C 1337.17,720.5 1336.83,723 1336.5,725.5C 1335.32,724.145 1334.32,724.312 1333.5,726C 1334.62,726.249 1335.62,726.749 1336.5,727.5C 1355.15,728.5 1373.82,728.833 1392.5,728.5C 1392.08,723.932 1394.08,722.432 1398.5,724C 1393.25,728.422 1394.25,729.589 1401.5,727.5C 1402.22,725.283 1403.72,723.949 1406,723.5C 1412.01,723.822 1417.84,723.822 1423.5,723.5C 1426.19,725.923 1429.19,726.59 1432.5,725.5C 1433.08,721.858 1433.58,718.191 1434,714.5C 1434.28,715.416 1434.78,716.082 1435.5,716.5C 1436.49,720.97 1436.82,725.637 1436.5,730.5C 1435.5,730.5 1434.5,730.5 1433.5,730.5C 1427.17,730.5 1420.83,730.5 1414.5,730.5C 1384,729.502 1353.34,729.169 1322.5,729.5C 1322.5,727.833 1322.5,726.167 1322.5,724.5C 1322.78,706.806 1322.44,689.139 1321.5,671.5C 1326.56,671.274 1331.56,671.608 1336.5,672.5 Z"/></g>
<g><path style="opacity:1" fill="#ca9c5f" d="M 564.5,675.5 C 565.574,676.885 566.907,678.051 568.5,679C 567.635,680.359 566.635,681.526 565.5,682.5C 564.167,682.5 562.833,682.5 561.5,682.5C 560.032,681.221 559.365,679.554 559.5,677.5C 560.635,675.787 562.302,675.12 564.5,675.5 Z"/></g>
<g><path style="opacity:1" fill="#d1a166" d="M 517.5,675.5 C 522.026,676.377 526.526,676.377 531,675.5C 533.261,675.865 535.427,676.531 537.5,677.5C 540.874,674.981 544.207,674.981 547.5,677.5C 547.703,679.39 547.037,680.89 545.5,682C 537.826,682.085 530.16,682.251 522.5,682.5C 520.701,682.423 519.034,681.923 517.5,681C 517.966,679.701 517.966,678.201 517.5,676.5C 517.5,676.167 517.5,675.833 517.5,675.5 Z"/></g>
<g><path style="opacity:1" fill="#b98f57" d="M 1391.5,678.5 C 1392.83,678.5 1394.17,678.5 1395.5,678.5C 1395.63,680.292 1395.3,681.958 1394.5,683.5C 1390.38,685.524 1388.04,684.191 1387.5,679.5C 1388.96,679.567 1390.29,679.234 1391.5,678.5 Z"/></g>
<g><path style="opacity:0.78" fill="#a07e61" d="M 1451.5,672.5 C 1452.16,673.622 1452.49,674.955 1452.5,676.5C 1452.35,678.32 1451.68,679.82 1450.5,681C 1450.87,684.378 1450.87,687.878 1450.5,691.5C 1449.28,686.71 1448.61,681.71 1448.5,676.5C 1449.5,676.5 1450.5,676.5 1451.5,676.5C 1451.5,675.167 1451.5,673.833 1451.5,672.5 Z"/></g>
<g><path style="opacity:1" fill="#e6deca" d="M 500.5,666.5 C 500.281,667.675 500.614,668.675 501.5,669.5C 503.409,668.652 505.409,668.318 507.5,668.5C 506.556,687.823 505.889,707.156 505.5,726.5C 501.833,726.5 498.167,726.5 494.5,726.5C 494.66,724.801 494.494,723.134 494,721.5C 493.503,723.81 493.337,726.143 493.5,728.5C 493.167,728.5 492.833,728.5 492.5,728.5C 492.5,724.5 492.5,720.5 492.5,716.5C 493.323,713.023 493.823,709.356 494,705.5C 494.5,693.838 494.667,682.171 494.5,670.5C 496.5,669.167 498.5,667.833 500.5,666.5 Z"/></g>
<g><path style="opacity:1" fill="#dab585" d="M 564.5,675.5 C 566.258,675.877 567.925,676.544 569.5,677.5C 573.74,674.787 576.74,675.787 578.5,680.5C 574.473,682.358 570.14,683.025 565.5,682.5C 566.635,681.526 567.635,680.359 568.5,679C 566.907,678.051 565.574,676.885 564.5,675.5 Z"/></g>
<g><path style="opacity:1" fill="#cfa36d" d="M 714.5,681.5 C 711.603,681.681 708.77,681.348 706,680.5C 693.778,683.272 681.611,683.105 669.5,680C 668.934,679.005 668.267,678.172 667.5,677.5C 667.833,676.833 668.167,676.167 668.5,675.5C 677.046,675.344 685.546,675.678 694,676.5C 697.489,673.896 700.989,673.896 704.5,676.5C 707.921,674.119 711.421,674.119 715,676.5C 717.978,674.245 721.144,674.078 724.5,676C 725.86,677.938 725.527,679.604 723.5,681C 720.518,681.498 717.518,681.665 714.5,681.5 Z"/></g>
<g><path style="opacity:1" fill="#be9a79" d="M 1227.5,676.5 C 1228.83,676.5 1230.17,676.5 1231.5,676.5C 1231.66,678.199 1231.49,679.866 1231,681.5C 1230.33,682.252 1229.5,682.586 1228.5,682.5C 1226.05,682.99 1224.38,682.157 1223.5,680C 1224.35,678.229 1225.68,677.063 1227.5,676.5 Z"/></g>
<g><path style="opacity:1" fill="#ac8b61" d="M 1370.5,678.5 C 1371.17,678.5 1371.83,678.5 1372.5,678.5C 1374.03,679.105 1375.03,680.271 1375.5,682C 1374.31,682.698 1373.31,683.531 1372.5,684.5C 1366.79,684.037 1366.12,682.037 1370.5,678.5 Z"/></g>
<g><path style="opacity:1" fill="#b38b51" d="M 1421.5,678.5 C 1423.17,678.5 1424.83,678.5 1426.5,678.5C 1426.66,679.873 1426.49,681.207 1426,682.5C 1425.67,682.167 1425.33,681.833 1425,681.5C 1424.3,682.691 1423.47,683.691 1422.5,684.5C 1418.5,685.167 1416.83,683.5 1417.5,679.5C 1419.1,679.768 1420.43,679.434 1421.5,678.5 Z"/></g>
<g><path style="opacity:1" fill="#e6caa5" d="M 667.5,677.5 C 668.267,678.172 668.934,679.005 669.5,680C 681.611,683.105 693.778,683.272 706,680.5C 708.77,681.348 711.603,681.681 714.5,681.5C 714.5,682.5 714.5,683.5 714.5,684.5C 715.5,684.5 716.5,684.5 717.5,684.5C 717.189,685.478 716.522,686.145 715.5,686.5C 713.568,685.634 711.568,684.967 709.5,684.5C 704.528,685.413 699.528,686.08 694.5,686.5C 692.906,686.08 691.406,685.414 690,684.5C 687.79,686.111 685.29,686.778 682.5,686.5C 677.978,686.659 673.311,686.326 668.5,685.5C 668.753,683.173 668.086,681.173 666.5,679.5C 666.863,678.817 667.196,678.15 667.5,677.5 Z"/></g>
<g><path style="opacity:1" fill="#e5e1d6" d="M 1316.5,671.5 C 1317.5,671.414 1318.33,671.748 1319,672.5C 1319.18,691.573 1319.68,710.573 1320.5,729.5C 1283.66,729.832 1247,729.498 1210.5,728.5C 1213.5,728.5 1216.5,728.5 1219.5,728.5C 1219.5,725.5 1219.5,722.5 1219.5,719.5C 1220.93,720.78 1221.6,722.447 1221.5,724.5C 1223.53,724.662 1225.53,724.495 1227.5,724C 1228.06,723.617 1228.39,723.117 1228.5,722.5C 1229.17,722.5 1229.5,722.167 1229.5,721.5C 1230.55,721.351 1231.55,721.517 1232.5,722C 1231.55,722.718 1231.38,723.551 1232,724.5C 1232.69,723.643 1233.52,722.977 1234.5,722.5C 1241.31,722.908 1248.15,723.242 1255,723.5C 1257.01,723.693 1258.51,723.026 1259.5,721.5C 1259.83,721.5 1260.17,721.5 1260.5,721.5C 1261.83,721.5 1263.17,721.5 1264.5,721.5C 1269.83,720.167 1275.17,720.167 1280.5,721.5C 1280.08,722.222 1279.42,722.722 1278.5,723C 1279.77,723.309 1280.93,723.809 1282,724.5C 1282.62,722.884 1283.62,721.551 1285,720.5C 1286.64,721.849 1288.14,721.682 1289.5,720C 1289.31,717.652 1288.31,715.319 1286.5,713C 1286.74,712.127 1287.07,711.293 1287.5,710.5C 1286.62,709.056 1285.62,707.556 1284.5,706C 1284.78,704.605 1285.45,703.438 1286.5,702.5C 1287.69,703.894 1288.35,703.727 1288.5,702C 1287.3,700.297 1287.63,698.797 1289.5,697.5C 1288.82,694.185 1288.82,691.018 1289.5,688C 1287.61,686.921 1287.27,685.587 1288.5,684C 1286.71,683.804 1285.38,682.971 1284.5,681.5C 1287.17,680.167 1287.17,678.833 1284.5,677.5C 1285.71,676.28 1285.71,675.113 1284.5,674C 1293.68,673.83 1302.68,673.33 1311.5,672.5C 1313.4,671.619 1315.06,671.286 1316.5,671.5 Z"/></g>
<g><path style="opacity:1" fill="#ead3af" d="M 1258.5,676.5 C 1256.59,677.21 1254.92,678.377 1253.5,680C 1253.61,681.28 1254.28,682.113 1255.5,682.5C 1257.54,681.764 1259.54,680.931 1261.5,680C 1260.66,678.989 1260.33,677.822 1260.5,676.5C 1266.69,676.177 1272.69,676.51 1278.5,677.5C 1277.5,677.5 1276.5,677.5 1275.5,677.5C 1275.76,678.978 1275.43,680.311 1274.5,681.5C 1273.81,680.975 1273.31,680.308 1273,679.5C 1272.15,681.607 1272.81,682.941 1275,683.5C 1276.89,682.804 1278.73,681.97 1280.5,681C 1279.66,679.989 1279.33,678.822 1279.5,677.5C 1280.95,678.134 1281.61,679.301 1281.5,681C 1281.51,683.163 1280.51,684.663 1278.5,685.5C 1278.86,686.183 1279.2,686.85 1279.5,687.5C 1278.17,687.5 1276.83,687.5 1275.5,687.5C 1265.07,686.182 1254.74,686.182 1244.5,687.5C 1238.19,687.488 1231.85,687.155 1225.5,686.5C 1226.5,685.167 1227.5,683.833 1228.5,682.5C 1229.5,682.586 1230.33,682.252 1231,681.5C 1231.49,679.866 1231.66,678.199 1231.5,676.5C 1230.17,676.5 1228.83,676.5 1227.5,676.5C 1227.96,675.12 1228.96,674.453 1230.5,674.5C 1239.76,676.065 1249.1,676.731 1258.5,676.5 Z"/></g>
<g><path style="opacity:1" fill="#bc8e5d" d="M 1278.5,677.5 C 1278.83,677.5 1279.17,677.5 1279.5,677.5C 1279.33,678.822 1279.66,679.989 1280.5,681C 1278.73,681.97 1276.89,682.804 1275,683.5C 1272.81,682.941 1272.15,681.607 1273,679.5C 1273.31,680.308 1273.81,680.975 1274.5,681.5C 1275.43,680.311 1275.76,678.978 1275.5,677.5C 1276.5,677.5 1277.5,677.5 1278.5,677.5 Z"/></g>
<g><path style="opacity:1" fill="#cb9d65" d="M 1237.5,676.5 C 1241.85,676.969 1246.18,677.636 1250.5,678.5C 1250.71,679.086 1251.04,679.586 1251.5,680C 1250.09,681.306 1248.42,682.14 1246.5,682.5C 1242.55,681.973 1238.55,681.807 1234.5,682C 1233.48,680.951 1233.32,679.784 1234,678.5C 1235.3,677.915 1236.47,677.249 1237.5,676.5 Z"/></g>
<g><path style="opacity:1" fill="#bc965c" d="M 1264.5,677.5 C 1266.5,677.5 1268.5,677.5 1270.5,677.5C 1270.71,680.745 1269.21,682.745 1266,683.5C 1262.16,682.177 1261.66,680.177 1264.5,677.5 Z"/></g>
<g><path style="opacity:1" fill="#b58d4d" d="M 1258.5,676.5 C 1259.17,676.5 1259.83,676.5 1260.5,676.5C 1260.33,677.822 1260.66,678.989 1261.5,680C 1259.54,680.931 1257.54,681.764 1255.5,682.5C 1254.28,682.113 1253.61,681.28 1253.5,680C 1254.92,678.377 1256.59,677.21 1258.5,676.5 Z"/></g>
<g><path style="opacity:0.251" fill="#978984" d="M 494.5,670.5 C 494.667,682.171 494.5,693.838 494,705.5C 493.823,709.356 493.323,713.023 492.5,716.5C 492.609,711.14 492.276,705.807 491.5,700.5C 491.727,690.126 492.727,680.126 494.5,670.5 Z"/></g>
<g><path style="opacity:1" fill="#b69d76" d="M 989.5,679.5 C 989.956,683.111 989.289,686.444 987.5,689.5C 990.116,693.041 990.116,696.541 987.5,700C 978.506,700.5 969.506,700.666 960.5,700.5C 960.5,693.833 960.5,687.167 960.5,680.5C 964.783,679.173 969.449,678.507 974.5,678.5C 979.579,678.525 984.579,678.858 989.5,679.5 Z"/></g>
<g><path style="opacity:1" fill="#cbb68b" d="M 961.5,679.5 C 966.5,679.5 971.5,679.5 976.5,679.5C 976.64,681.124 975.973,682.29 974.5,683C 975.308,683.308 975.975,683.808 976.5,684.5C 975.167,686.167 975.167,687.833 976.5,689.5C 975.624,690.251 974.624,690.751 973.5,691C 974.416,691.374 975.25,691.874 976,692.5C 976.236,694.764 976.736,696.931 977.5,699C 972.177,699.499 966.844,699.666 961.5,699.5C 961.5,692.833 961.5,686.167 961.5,679.5 Z"/></g>
<g><path style="opacity:1" fill="#e3bc8b" d="M 1244.5,687.5 C 1254.74,686.182 1265.07,686.182 1275.5,687.5C 1274.79,688.404 1273.79,688.737 1272.5,688.5C 1272.38,691.91 1274.05,693.244 1277.5,692.5C 1277.5,693.167 1277.17,693.5 1276.5,693.5C 1274.1,693.552 1271.76,693.219 1269.5,692.5C 1270.03,691.153 1270.19,689.819 1270,688.5C 1268.29,687.232 1266.13,687.232 1263.5,688.5C 1263.5,689.5 1263.5,690.5 1263.5,691.5C 1260.34,692.551 1257.34,692.551 1254.5,691.5C 1256.99,691.702 1259.32,691.202 1261.5,690C 1259.69,687.73 1257.35,687.064 1254.5,688C 1253.75,688.671 1253.41,689.504 1253.5,690.5C 1252.17,691.167 1250.83,691.833 1249.5,692.5C 1250.04,690.883 1250.37,689.216 1250.5,687.5C 1248.5,687.5 1246.5,687.5 1244.5,687.5 Z"/></g>
<g><path style="opacity:1" fill="#e8d4b2" d="M 1406.5,677.5 C 1404.59,677.216 1402.92,677.549 1401.5,678.5C 1401.17,678.5 1400.83,678.5 1400.5,678.5C 1397.33,677.632 1394.33,677.632 1391.5,678.5C 1390.29,679.234 1388.96,679.567 1387.5,679.5C 1388.04,684.191 1390.38,685.524 1394.5,683.5C 1396.84,683.775 1396.84,684.608 1394.5,686C 1394.83,686.333 1395.17,686.667 1395.5,687C 1386.56,687.512 1377.89,687.346 1369.5,686.5C 1370.5,685.833 1371.5,685.167 1372.5,684.5C 1373.31,683.531 1374.31,682.698 1375.5,682C 1375.03,680.271 1374.03,679.105 1372.5,678.5C 1378.95,677.96 1385.45,676.96 1392,675.5C 1395.83,676.794 1399.66,676.794 1403.5,675.5C 1405.04,675.453 1406.04,676.12 1406.5,677.5 Z"/></g>
<g><path style="opacity:1" fill="#b8925b" d="M 1379.5,678.5 C 1381.5,678.5 1383.5,678.5 1385.5,678.5C 1386.07,681.617 1384.91,683.617 1382,684.5C 1377.32,683.924 1376.49,681.924 1379.5,678.5 Z"/></g>
<g><path style="opacity:1" fill="#cf9a5a" d="M 517.5,685.5 C 522.026,686.377 526.526,686.377 531,685.5C 533.151,685.773 535.151,686.439 537,687.5C 540.359,685.115 543.859,685.115 547.5,687.5C 551.023,684.869 554.356,685.202 557.5,688.5C 556.975,689.192 556.308,689.692 555.5,690C 551.15,690.368 546.817,690.868 542.5,691.5C 534.819,691.326 527.153,691.326 519.5,691.5C 516.577,690.311 515.911,688.311 517.5,685.5 Z"/></g>
<g><path style="opacity:1" fill="#cb975a" d="M 560.5,685.5 C 562.861,685.674 565.194,686.007 567.5,686.5C 566.978,691.258 564.478,692.592 560,690.5C 559.36,688.735 559.527,687.068 560.5,685.5 Z"/></g>
<g><path style="opacity:1" fill="#d1c6b3" d="M 667.5,674.5 C 667.5,675.167 667.833,675.5 668.5,675.5C 668.167,676.167 667.833,676.833 667.5,677.5C 667.196,678.15 666.863,678.817 666.5,679.5C 668.086,681.173 668.753,683.173 668.5,685.5C 668.205,687.735 668.539,689.735 669.5,691.5C 670.339,693.384 671.672,694.717 673.5,695.5C 667.011,695.141 666.011,697.141 670.5,701.5C 670.167,702.833 669.833,704.167 669.5,705.5C 669.5,707.167 669.5,708.833 669.5,710.5C 667.932,713.31 666.599,716.31 665.5,719.5C 666.025,720.192 666.692,720.692 667.5,721C 680.865,721.221 694.199,721.721 707.5,722.5C 695.203,723.348 682.703,723.348 670,722.5C 667.739,722.439 665.739,723.106 664,724.5C 663.08,721.899 662.413,719.232 662,716.5C 661.25,715.874 660.416,715.374 659.5,715C 662.802,711.932 663.136,708.432 660.5,704.5C 662.833,702.659 663.166,700.492 661.5,698C 664.16,694.686 664.16,691.353 661.5,688C 663.159,685.07 663.492,682.07 662.5,679C 661.552,678.517 660.552,678.351 659.5,678.5C 659.5,677.5 659.5,676.5 659.5,675.5C 662.237,675.599 664.904,675.265 667.5,674.5 Z"/></g>
<g><path style="opacity:1" fill="#87704e" d="M 1010.5,680.5 C 1012.77,680.141 1014.6,680.808 1016,682.5C 1017.14,688.353 1017.3,694.186 1016.5,700C 1019.46,702.184 1019.12,703.351 1015.5,703.5C 1015.66,706.187 1015.5,708.854 1015,711.5C 1010.55,713.545 1011.05,714.545 1016.5,714.5C 1016.36,716.124 1017.03,717.29 1018.5,718C 1017.27,719.49 1017.27,720.99 1018.5,722.5C 1016.5,722.5 1014.5,722.5 1012.5,722.5C 1011.2,718.888 1010.03,715.221 1009,711.5C 1008.5,701.839 1008.33,692.172 1008.5,682.5C 1008.83,681.5 1009.5,680.833 1010.5,680.5 Z"/></g>
<g><path style="opacity:1" fill="#d3c6b8" d="M 1227.5,676.5 C 1225.68,677.063 1224.35,678.229 1223.5,680C 1224.38,682.157 1226.05,682.99 1228.5,682.5C 1227.5,683.833 1226.5,685.167 1225.5,686.5C 1223.01,688.594 1223.01,690.594 1225.5,692.5C 1225.63,694.292 1225.3,695.958 1224.5,697.5C 1224.48,701.611 1223.81,705.611 1222.5,709.5C 1224.66,712.14 1224.99,714.973 1223.5,718C 1223.51,721.338 1225.17,722.838 1228.5,722.5C 1228.39,723.117 1228.06,723.617 1227.5,724C 1225.53,724.495 1223.53,724.662 1221.5,724.5C 1221.6,722.447 1220.93,720.78 1219.5,719.5C 1218.76,708.192 1218.09,696.859 1217.5,685.5C 1219.43,685.769 1221.1,685.269 1222.5,684C 1219.96,680.866 1220.29,677.866 1223.5,675C 1225.19,674.516 1226.53,675.016 1227.5,676.5 Z"/></g>
<g><path style="opacity:1" fill="#e1c79f" d="M 1391.5,678.5 C 1394.33,677.632 1397.33,677.632 1400.5,678.5C 1398,680.604 1398,682.604 1400.5,684.5C 1402.54,683.764 1404.54,682.931 1406.5,682C 1405.66,680.989 1405.33,679.822 1405.5,678.5C 1404.17,678.5 1402.83,678.5 1401.5,678.5C 1402.92,677.549 1404.59,677.216 1406.5,677.5C 1410.5,677.5 1414.5,677.5 1418.5,677.5C 1419.21,678.404 1420.21,678.737 1421.5,678.5C 1420.43,679.434 1419.1,679.768 1417.5,679.5C 1416.83,683.5 1418.5,685.167 1422.5,684.5C 1422.59,685.496 1422.25,686.329 1421.5,687C 1423.32,687.2 1424.65,688.034 1425.5,689.5C 1424.78,689.918 1424.28,690.584 1424,691.5C 1421.77,688.844 1419.94,689.177 1418.5,692.5C 1420.4,693.466 1422.4,693.799 1424.5,693.5C 1424.16,694.338 1423.49,694.672 1422.5,694.5C 1417.97,694.818 1413.63,694.485 1409.5,693.5C 1408.17,693.5 1406.83,693.5 1405.5,693.5C 1406.3,691.958 1406.63,690.292 1406.5,688.5C 1404.14,688.337 1401.81,688.503 1399.5,689C 1398.33,689.5 1397.5,690.333 1397,691.5C 1393.94,688.064 1390.61,687.731 1387,690.5C 1386.26,689.426 1385.26,688.759 1384,688.5C 1382.23,689.233 1380.4,689.567 1378.5,689.5C 1378.5,690.5 1378.5,691.5 1378.5,692.5C 1377.5,692.5 1376.5,692.5 1375.5,692.5C 1375.76,691.022 1375.43,689.689 1374.5,688.5C 1373.46,690.991 1372.63,690.991 1372,688.5C 1371.92,690.085 1371.75,691.418 1371.5,692.5C 1370.86,691.007 1369.86,690.007 1368.5,689.5C 1368.26,688.209 1368.6,687.209 1369.5,686.5C 1377.89,687.346 1386.56,687.512 1395.5,687C 1395.17,686.667 1394.83,686.333 1394.5,686C 1396.84,684.608 1396.84,683.775 1394.5,683.5C 1395.3,681.958 1395.63,680.292 1395.5,678.5C 1394.17,678.5 1392.83,678.5 1391.5,678.5 Z"/></g>
<g><path style="opacity:1" fill="#b48a51" d="M 1409.5,678.5 C 1411.5,678.5 1413.5,678.5 1415.5,678.5C 1415.65,681.965 1413.98,683.965 1410.5,684.5C 1409.28,684.113 1408.61,683.28 1408.5,682C 1408.99,680.862 1409.32,679.695 1409.5,678.5 Z"/></g>
<g><path style="opacity:1" fill="#b28d49" d="M 1400.5,678.5 C 1400.83,678.5 1401.17,678.5 1401.5,678.5C 1402.83,678.5 1404.17,678.5 1405.5,678.5C 1405.33,679.822 1405.66,680.989 1406.5,682C 1404.54,682.931 1402.54,683.764 1400.5,684.5C 1398,682.604 1398,680.604 1400.5,678.5 Z"/></g>
<g><path style="opacity:1" fill="#c4bdae" d="M 616.5,666.5 C 616.5,667.5 616.5,668.5 616.5,669.5C 615.5,669.5 614.5,669.5 613.5,669.5C 612.938,688.828 612.605,708.162 612.5,727.5C 617.167,727.5 621.833,727.5 626.5,727.5C 627.209,728.404 628.209,728.737 629.5,728.5C 629.714,730.144 629.38,731.644 628.5,733C 624.514,733.499 620.514,733.666 616.5,733.5C 616.5,732.833 616.167,732.5 615.5,732.5C 615.5,731.167 615.5,729.833 615.5,728.5C 613.833,728.5 612.167,728.5 610.5,728.5C 610.5,727.833 610.5,727.167 610.5,726.5C 611.619,707.671 611.619,689.005 610.5,670.5C 612.081,668.697 614.081,667.364 616.5,666.5 Z"/></g>
<g><path style="opacity:1" fill="#c19454" d="M 1244.5,687.5 C 1246.5,687.5 1248.5,687.5 1250.5,687.5C 1250.37,689.216 1250.04,690.883 1249.5,692.5C 1249.17,692.5 1248.83,692.5 1248.5,692.5C 1245.45,693.077 1243.45,691.91 1242.5,689C 1243.42,688.722 1244.08,688.222 1244.5,687.5 Z"/></g>
<g><path style="opacity:1" fill="#ca914c" d="M 694.5,686.5 C 694.804,687.15 695.137,687.817 695.5,688.5C 692.988,689.795 690.321,690.461 687.5,690.5C 686.833,690.5 686.167,690.5 685.5,690.5C 681.116,690.826 676.783,690.492 672.5,689.5C 675.352,687.282 678.685,686.282 682.5,686.5C 685.29,686.778 687.79,686.111 690,684.5C 691.406,685.414 692.906,686.08 694.5,686.5 Z"/></g>
<g><path style="opacity:1" fill="#bf8d56" d="M 1254.5,691.5 C 1253.83,691.5 1253.5,691.167 1253.5,690.5C 1253.41,689.504 1253.75,688.671 1254.5,688C 1257.35,687.064 1259.69,687.73 1261.5,690C 1259.32,691.202 1256.99,691.702 1254.5,691.5 Z"/></g>
<g><path style="opacity:1" fill="#a28556" d="M 1375.5,692.5 C 1374.61,693.11 1373.61,693.443 1372.5,693.5C 1371.17,693.5 1369.83,693.5 1368.5,693.5C 1368.5,692.167 1368.5,690.833 1368.5,689.5C 1369.86,690.007 1370.86,691.007 1371.5,692.5C 1371.75,691.418 1371.92,690.085 1372,688.5C 1372.63,690.991 1373.46,690.991 1374.5,688.5C 1375.43,689.689 1375.76,691.022 1375.5,692.5 Z"/></g>
<g><path style="opacity:1" fill="#c19862" d="M 668.5,685.5 C 673.311,686.326 677.978,686.659 682.5,686.5C 678.685,686.282 675.352,687.282 672.5,689.5C 676.783,690.492 681.116,690.826 685.5,690.5C 680.36,691.488 675.026,691.821 669.5,691.5C 668.539,689.735 668.205,687.735 668.5,685.5 Z"/></g>
<g><path style="opacity:1" fill="#d6a56a" d="M 717.5,684.5 C 719.861,684.674 722.194,685.007 724.5,685.5C 724.913,688.32 723.913,690.32 721.5,691.5C 710.019,691.188 698.686,690.855 687.5,690.5C 690.321,690.461 692.988,689.795 695.5,688.5C 695.137,687.817 694.804,687.15 694.5,686.5C 699.528,686.08 704.528,685.413 709.5,684.5C 711.568,684.967 713.568,685.634 715.5,686.5C 716.522,686.145 717.189,685.478 717.5,684.5 Z"/></g>
<g><path style="opacity:1" fill="#c9b9a3" d="M 729.5,709.5 C 729.5,705.167 729.5,700.833 729.5,696.5C 729.169,687.808 729.502,679.141 730.5,670.5C 731.833,688.833 731.833,707.167 730.5,725.5C 729.505,720.208 729.172,714.875 729.5,709.5 Z"/></g>
<g><path style="opacity:1" fill="#b9b3ab" d="M 1124.5,669.5 C 1123.17,669.5 1121.83,669.5 1120.5,669.5C 1118.97,668.895 1117.97,667.729 1117.5,666C 1111.39,665.091 1105.39,665.424 1099.5,667C 1102.15,667.497 1104.81,667.664 1107.5,667.5C 1107.5,687.167 1107.5,706.833 1107.5,726.5C 1111.83,726.5 1116.17,726.5 1120.5,726.5C 1147.33,727.498 1174.33,727.831 1201.5,727.5C 1201.14,708.501 1200.81,689.501 1200.5,670.5C 1201.5,670.5 1202.5,670.5 1203.5,670.5C 1203.5,689.833 1203.5,709.167 1203.5,728.5C 1176.09,727.941 1148.76,728.607 1121.5,730.5C 1120.78,731.551 1119.78,732.218 1118.5,732.5C 1119.87,728.354 1119.2,727.854 1116.5,731C 1115.55,731.483 1114.55,731.649 1113.5,731.5C 1113.5,730.5 1113.5,729.5 1113.5,728.5C 1111.11,728.259 1109.11,728.925 1107.5,730.5C 1107.71,728.821 1107.05,727.821 1105.5,727.5C 1105.5,727.167 1105.5,726.833 1105.5,726.5C 1106.83,707.833 1106.83,689.167 1105.5,670.5C 1102.04,669.518 1098.37,669.185 1094.5,669.5C 1095.79,668.215 1097.12,666.881 1098.5,665.5C 1102.17,664.767 1105.84,664.101 1109.5,663.5C 1113.16,664.101 1116.83,664.767 1120.5,665.5C 1121.88,666.881 1123.21,668.215 1124.5,669.5 Z"/></g>
<g><path style="opacity:1" fill="#c18e52" d="M 1405.5,693.5 C 1402.67,694.901 1400.01,694.567 1397.5,692.5C 1394.01,693.795 1390.51,693.795 1387,692.5C 1384.03,694.915 1381.19,694.915 1378.5,692.5C 1378.5,691.5 1378.5,690.5 1378.5,689.5C 1380.4,689.567 1382.23,689.233 1384,688.5C 1385.26,688.759 1386.26,689.426 1387,690.5C 1390.61,687.731 1393.94,688.064 1397,691.5C 1397.5,690.333 1398.33,689.5 1399.5,689C 1401.81,688.503 1404.14,688.337 1406.5,688.5C 1406.63,690.292 1406.3,691.958 1405.5,693.5 Z"/></g>
<g><path style="opacity:1" fill="#d1ac76" d="M 574.5,692.5 C 571.196,691.856 569.862,689.856 570.5,686.5C 573.097,685.405 575.597,685.738 578,687.5C 578.669,690.345 577.503,692.012 574.5,692.5 Z"/></g>
<g><path style="opacity:1" fill="#c89453" d="M 1269.5,692.5 C 1267.38,692.675 1265.38,692.341 1263.5,691.5C 1263.5,690.5 1263.5,689.5 1263.5,688.5C 1266.13,687.232 1268.29,687.232 1270,688.5C 1270.19,689.819 1270.03,691.153 1269.5,692.5 Z"/></g>
<g><path style="opacity:1" fill="#c59050" d="M 1275.5,687.5 C 1276.83,687.5 1278.17,687.5 1279.5,687.5C 1281.4,690.328 1280.73,691.994 1277.5,692.5C 1274.05,693.244 1272.38,691.91 1272.5,688.5C 1273.79,688.737 1274.79,688.404 1275.5,687.5 Z"/></g>
<g><path style="opacity:1" fill="#d8b889" d="M 1225.5,686.5 C 1231.85,687.155 1238.19,687.488 1244.5,687.5C 1244.08,688.222 1243.42,688.722 1242.5,689C 1243.45,691.91 1245.45,693.077 1248.5,692.5C 1240.81,693.244 1233.14,693.244 1225.5,692.5C 1223.01,690.594 1223.01,688.594 1225.5,686.5 Z"/></g>
<g><path style="opacity:1" fill="#bd8f48" d="M 1237.5,687.5 C 1240.69,687.722 1241.69,689.222 1240.5,692C 1236.78,693.392 1234.78,692.225 1234.5,688.5C 1235.79,688.737 1236.79,688.404 1237.5,687.5 Z"/></g>
<g><path style="opacity:1" fill="#c38d4b" d="M 1409.5,693.5 C 1408.77,692.292 1408.43,690.959 1408.5,689.5C 1411.5,689.5 1414.5,689.5 1417.5,689.5C 1417.72,690.675 1417.39,691.675 1416.5,692.5C 1414.25,693.374 1411.92,693.708 1409.5,693.5 Z"/></g>
<g><path style="opacity:1" fill="#b0834f" d="M 1425.5,689.5 C 1426.12,689.917 1426.46,690.584 1426.5,691.5C 1426.25,692.713 1425.59,693.38 1424.5,693.5C 1422.4,693.799 1420.4,693.466 1418.5,692.5C 1419.94,689.177 1421.77,688.844 1424,691.5C 1424.28,690.584 1424.78,689.918 1425.5,689.5 Z"/></g>
<g><path style="opacity:1" fill="#efd6ad" d="M 517.5,676.5 C 517.966,678.201 517.966,679.701 517.5,681C 519.034,681.923 520.701,682.423 522.5,682.5C 530.16,682.251 537.826,682.085 545.5,682C 547.037,680.89 547.703,679.39 547.5,677.5C 548.167,677.167 548.833,676.833 549.5,676.5C 548.755,679.93 550.089,681.597 553.5,681.5C 556.512,681.821 557.845,680.488 557.5,677.5C 558.167,677.5 558.833,677.5 559.5,677.5C 559.365,679.554 560.032,681.221 561.5,682.5C 559.335,682.116 557.668,682.783 556.5,684.5C 557.689,685.429 559.022,685.762 560.5,685.5C 559.527,687.068 559.36,688.735 560,690.5C 564.478,692.592 566.978,691.258 567.5,686.5C 568.5,686.5 569.5,686.5 570.5,686.5C 569.862,689.856 571.196,691.856 574.5,692.5C 574.082,693.222 573.416,693.722 572.5,694C 573.416,694.278 574.082,694.778 574.5,695.5C 572.173,695.247 570.173,695.914 568.5,697.5C 564.403,694.931 560.403,694.931 556.5,697.5C 554.562,695.837 552.228,695.171 549.5,695.5C 547.5,695.5 545.5,695.5 543.5,695.5C 541.833,695.5 540.167,695.5 538.5,695.5C 536.167,695.5 533.833,695.5 531.5,695.5C 527.5,696.833 523.5,696.833 519.5,695.5C 520.405,694.298 520.405,692.964 519.5,691.5C 527.153,691.326 534.819,691.326 542.5,691.5C 546.817,690.868 551.15,690.368 555.5,690C 556.308,689.692 556.975,689.192 557.5,688.5C 554.356,685.202 551.023,684.869 547.5,687.5C 543.859,685.115 540.359,685.115 537,687.5C 535.151,686.439 533.151,685.773 531,685.5C 526.526,686.377 522.026,686.377 517.5,685.5C 517.804,684.85 518.137,684.183 518.5,683.5C 512.213,681.939 511.88,679.606 517.5,676.5 Z"/></g>
<g><path style="opacity:1" fill="#e9d1af" d="M 1253.5,690.5 C 1253.5,691.167 1253.83,691.5 1254.5,691.5C 1257.34,692.551 1260.34,692.551 1263.5,691.5C 1265.38,692.341 1267.38,692.675 1269.5,692.5C 1271.76,693.219 1274.1,693.552 1276.5,693.5C 1275.17,695.195 1275.51,696.528 1277.5,697.5C 1273.15,697.334 1268.82,697.501 1264.5,698C 1262.88,700.8 1263.72,702.3 1267,702.5C 1270.81,701.571 1274.64,701.571 1278.5,702.5C 1277.1,703.1 1276.1,704.1 1275.5,705.5C 1271.69,706.026 1268.02,706.693 1264.5,707.5C 1263.39,707.557 1262.39,707.89 1261.5,708.5C 1261.67,707.508 1261.34,706.842 1260.5,706.5C 1255.01,706.029 1249.51,705.029 1244,703.5C 1241.22,705.889 1238.38,706.056 1235.5,704C 1236.17,703.667 1236.83,703.333 1237.5,703C 1241.69,702.824 1245.69,702.324 1249.5,701.5C 1249.92,700.778 1250.58,700.278 1251.5,700C 1251.04,699.586 1250.71,699.086 1250.5,698.5C 1245.07,696.81 1239.74,696.477 1234.5,697.5C 1233.5,697.5 1232.5,697.5 1231.5,697.5C 1229.31,696.377 1226.98,696.377 1224.5,697.5C 1225.3,695.958 1225.63,694.292 1225.5,692.5C 1233.14,693.244 1240.81,693.244 1248.5,692.5C 1248.83,692.5 1249.17,692.5 1249.5,692.5C 1250.83,691.833 1252.17,691.167 1253.5,690.5 Z"/></g>
<g><path style="opacity:1" fill="#ead3b7" d="M 1375.5,692.5 C 1376.5,692.5 1377.5,692.5 1378.5,692.5C 1381.19,694.915 1384.03,694.915 1387,692.5C 1390.51,693.795 1394.01,693.795 1397.5,692.5C 1400.01,694.567 1402.67,694.901 1405.5,693.5C 1406.83,693.5 1408.17,693.5 1409.5,693.5C 1413.63,694.485 1417.97,694.818 1422.5,694.5C 1422.08,695.222 1421.42,695.722 1420.5,696C 1421.06,696.383 1421.39,696.883 1421.5,697.5C 1405.5,697.5 1389.5,697.5 1373.5,697.5C 1371.38,696.597 1371.05,695.263 1372.5,693.5C 1373.61,693.443 1374.61,693.11 1375.5,692.5 Z"/></g>
<g><path style="opacity:1" fill="#eae5d2" d="M 630.5,666.5 C 630.5,667.5 630.5,668.5 630.5,669.5C 632.5,669.5 634.5,669.5 636.5,669.5C 640.794,670.187 645.461,670.52 650.5,670.5C 643.687,671.491 636.687,671.825 629.5,671.5C 629.056,689.831 628.722,708.164 628.5,726.5C 638.172,726.334 647.839,726.5 657.5,727C 647.172,727.5 636.839,727.666 626.5,727.5C 621.833,727.5 617.167,727.5 612.5,727.5C 612.605,708.162 612.938,688.828 613.5,669.5C 614.5,669.5 615.5,669.5 616.5,669.5C 616.5,668.5 616.5,667.5 616.5,666.5C 621.242,665.759 625.908,665.759 630.5,666.5 Z"/></g>
<g><path style="opacity:1" fill="#cf934e" d="M 1035.5,688.5 C 1035.5,689.167 1035.5,689.833 1035.5,690.5C 1034.31,690.97 1033.64,691.97 1033.5,693.5C 1034.8,696.379 1035.46,699.379 1035.5,702.5C 1036.5,702.5 1037.5,702.5 1038.5,702.5C 1038.34,700.473 1038.5,698.473 1039,696.5C 1039.38,695.944 1039.88,695.611 1040.5,695.5C 1039.9,698.127 1039.4,700.793 1039,703.5C 1037.32,704.061 1035.99,705.061 1035,706.5C 1033.84,701.202 1033.01,695.869 1032.5,690.5C 1032.97,689.094 1033.97,688.427 1035.5,688.5 Z"/></g>
<g><path style="opacity:1" fill="#e9e1cd" d="M 844.5,668.5 C 844.5,687.5 844.5,706.5 844.5,725.5C 839.767,725.777 835.1,725.443 830.5,724.5C 829.5,705.845 829.167,687.179 829.5,668.5C 834.5,668.5 839.5,668.5 844.5,668.5 Z"/></g>
<g><path style="opacity:1" fill="#ccc1b1" d="M 1370.5,678.5 C 1366.12,682.037 1366.79,684.037 1372.5,684.5C 1371.5,685.167 1370.5,685.833 1369.5,686.5C 1368.6,687.209 1368.26,688.209 1368.5,689.5C 1368.5,690.833 1368.5,692.167 1368.5,693.5C 1369.83,693.5 1371.17,693.5 1372.5,693.5C 1371.05,695.263 1371.38,696.597 1373.5,697.5C 1373.5,697.833 1373.5,698.167 1373.5,698.5C 1369.5,697.833 1367.83,699.5 1368.5,703.5C 1370.5,703.5 1372.5,703.5 1374.5,703.5C 1373.79,704.404 1372.79,704.737 1371.5,704.5C 1371.5,705.5 1371.5,706.5 1371.5,707.5C 1369.62,708.659 1369.12,710.326 1370,712.5C 1371.01,713.337 1372.18,713.67 1373.5,713.5C 1371.51,714.472 1371.17,715.805 1372.5,717.5C 1368.25,720.002 1368.58,721.669 1373.5,722.5C 1373.5,722.833 1373.5,723.167 1373.5,723.5C 1371.71,724.622 1369.71,724.789 1367.5,724C 1364.76,720.316 1364.1,716.316 1365.5,712C 1362.22,709.246 1361.89,706.246 1364.5,703C 1362.76,701.454 1361.76,699.454 1361.5,697C 1361.6,695.439 1361.94,693.939 1362.5,692.5C 1361.51,691.532 1360.84,690.365 1360.5,689C 1360.36,686.088 1361.69,684.588 1364.5,684.5C 1364.5,681.833 1364.5,679.167 1364.5,676.5C 1367.08,676.025 1369.08,676.692 1370.5,678.5 Z"/></g>
<g><path style="opacity:1" fill="#e7dfcd" d="M 822.5,668.5 C 823.492,668.328 824.158,668.662 824.5,669.5C 798.833,669.5 773.167,669.5 747.5,669.5C 747.5,688.5 747.5,707.5 747.5,726.5C 744.14,726.616 740.807,726.949 737.5,727.5C 721.167,727.5 704.833,727.5 688.5,727.5C 688.658,725.582 699.325,725.249 720.5,726.5C 720.5,725.5 720.5,724.5 720.5,723.5C 722.483,723.843 723.817,723.176 724.5,721.5C 727.145,718.243 727.145,714.909 724.5,711.5C 726.139,710.678 727.805,710.011 729.5,709.5C 729.172,714.875 729.505,720.208 730.5,725.5C 731.833,707.167 731.833,688.833 730.5,670.5C 729.502,679.141 729.169,687.808 729.5,696.5C 728.167,696.5 726.833,696.5 725.5,696.5C 725.756,694.063 726.423,691.729 727.5,689.5C 726.909,687.15 725.909,684.983 724.5,683C 725.613,681.606 726.947,680.439 728.5,679.5C 726.213,672.523 721.879,670.857 715.5,674.5C 712.167,671.833 708.833,671.833 705.5,674.5C 695.803,674.125 686.136,673.791 676.5,673.5C 676.918,672.778 677.584,672.278 678.5,672C 677.584,671.722 676.918,671.222 676.5,670.5C 721.46,668.815 766.793,667.815 812.5,667.5C 815.917,667.539 819.25,667.873 822.5,668.5 Z"/></g>
<g><path style="opacity:1" fill="#dfbe8f" d="M 1373.5,698.5 C 1373.5,698.167 1373.5,697.833 1373.5,697.5C 1389.5,697.5 1405.5,697.5 1421.5,697.5C 1423.1,697.232 1424.43,697.566 1425.5,698.5C 1417.16,698.334 1408.83,698.5 1400.5,699C 1398.22,700.084 1397.88,701.584 1399.5,703.5C 1398.17,703.5 1396.83,703.5 1395.5,703.5C 1396.3,701.958 1396.63,700.292 1396.5,698.5C 1394.08,698.292 1391.75,698.626 1389.5,699.5C 1388.44,700.425 1388.44,701.425 1389.5,702.5C 1388.17,702.5 1386.83,702.5 1385.5,702.5C 1386.23,701.292 1386.57,699.959 1386.5,698.5C 1384.41,698.318 1382.41,698.652 1380.5,699.5C 1379.61,700.325 1379.28,701.325 1379.5,702.5C 1377.88,703.038 1376.22,703.371 1374.5,703.5C 1375.97,702.221 1376.63,700.554 1376.5,698.5C 1375.5,698.5 1374.5,698.5 1373.5,698.5 Z"/></g>
<g><path style="opacity:1" fill="#afa69a" d="M 1450.5,672.5 C 1449.17,672.5 1447.83,672.5 1446.5,672.5C 1446.5,671.5 1446.5,670.5 1446.5,669.5C 1442.35,668.92 1438.68,669.586 1435.5,671.5C 1437.52,692.771 1438.19,714.104 1437.5,735.5C 1441.23,735.823 1444.89,735.489 1448.5,734.5C 1449.25,733.264 1449.58,731.93 1449.5,730.5C 1450.5,730.5 1451.5,730.5 1452.5,730.5C 1452.67,732.492 1452,734.158 1450.5,735.5C 1448.19,736.273 1445.85,736.94 1443.5,737.5C 1441.15,736.94 1438.81,736.273 1436.5,735.5C 1435.39,734.735 1434.72,733.735 1434.5,732.5C 1434.5,731.833 1434.17,731.5 1433.5,731.5C 1433.5,731.167 1433.5,730.833 1433.5,730.5C 1434.5,730.5 1435.5,730.5 1436.5,730.5C 1436.82,725.637 1436.49,720.97 1435.5,716.5C 1435.5,708.483 1435.17,700.483 1434.5,692.5C 1435.13,685.416 1434.46,678.75 1432.5,672.5C 1432.72,671.265 1433.39,670.265 1434.5,669.5C 1436.81,668.727 1439.15,668.06 1441.5,667.5C 1443.85,668.06 1446.19,668.727 1448.5,669.5C 1449.61,670.265 1450.28,671.265 1450.5,672.5 Z"/></g>
<g><path style="opacity:1" fill="#cd9552" d="M 519.5,695.5 C 523.5,696.833 527.5,696.833 531.5,695.5C 532.919,696.451 534.585,696.784 536.5,696.5C 536.714,698.144 536.38,699.644 535.5,701C 530.778,700.8 526.112,700.966 521.5,701.5C 518.703,701.033 517.369,699.367 517.5,696.5C 517.842,695.662 518.508,695.328 519.5,695.5 Z"/></g>
<g><path style="opacity:1" fill="#d4a56a" d="M 720.5,694.5 C 723.324,694.989 724.657,696.656 724.5,699.5C 719.205,700.552 713.872,701.052 708.5,701C 706.771,699.211 706.104,697.044 706.5,694.5C 711.167,694.5 715.833,694.5 720.5,694.5 Z"/></g>
<g><path style="opacity:1" fill="#cb9455" d="M 670.5,701.5 C 666.011,697.141 667.011,695.141 673.5,695.5C 675.807,696.32 678.141,695.987 680.5,694.5C 682.167,695.167 683.833,695.833 685.5,696.5C 686.611,695.389 687.945,694.722 689.5,694.5C 692.5,695.833 695.5,695.833 698.5,694.5C 701.26,694.758 703.594,695.758 705.5,697.5C 705.167,698.167 704.833,698.833 704.5,699.5C 693.15,700.231 681.817,700.898 670.5,701.5 Z"/></g>
<g><path style="opacity:1" fill="#caa263" d="M 1249.5,701.5 C 1244.5,701.5 1239.5,701.5 1234.5,701.5C 1234.5,700.167 1234.5,698.833 1234.5,697.5C 1239.74,696.477 1245.07,696.81 1250.5,698.5C 1250.71,699.086 1251.04,699.586 1251.5,700C 1250.58,700.278 1249.92,700.778 1249.5,701.5 Z"/></g>
<g><path style="opacity:1" fill="#b5b1a8" d="M 1319.5,668.5 C 1320.7,687.284 1321.7,705.951 1322.5,724.5C 1322.5,726.167 1322.5,727.833 1322.5,729.5C 1353.34,729.169 1384,729.502 1414.5,730.5C 1387.15,729.842 1360.15,730.509 1333.5,732.5C 1332.83,731.833 1332.17,731.167 1331.5,730.5C 1327.73,730.756 1324.06,730.423 1320.5,729.5C 1319.68,710.573 1319.18,691.573 1319,672.5C 1318.33,671.748 1317.5,671.414 1316.5,671.5C 1317.5,670.5 1318.5,669.5 1319.5,668.5 Z"/></g>
<g><path style="opacity:1" fill="#bd8b52" d="M 1385.5,702.5 C 1383.5,703.833 1381.5,703.833 1379.5,702.5C 1379.28,701.325 1379.61,700.325 1380.5,699.5C 1382.41,698.652 1384.41,698.318 1386.5,698.5C 1386.57,699.959 1386.23,701.292 1385.5,702.5 Z"/></g>
<g><path style="opacity:1" fill="#c39762" d="M 1254.5,697.5 C 1257.36,697.064 1259.7,697.897 1261.5,700C 1258.19,702.241 1255.19,701.908 1252.5,699C 1253.42,698.722 1254.08,698.222 1254.5,697.5 Z"/></g>
<g><path style="opacity:1" fill="#c99c5e" d="M 1277.5,697.5 C 1278.83,697.5 1280.17,697.5 1281.5,697.5C 1282.08,700.285 1281.08,701.952 1278.5,702.5C 1274.64,701.571 1270.81,701.571 1267,702.5C 1263.72,702.3 1262.88,700.8 1264.5,698C 1268.82,697.501 1273.15,697.334 1277.5,697.5 Z"/></g>
<g><path style="opacity:1" fill="#b88547" d="M 1395.5,703.5 C 1393.26,703.795 1391.26,703.461 1389.5,702.5C 1388.44,701.425 1388.44,700.425 1389.5,699.5C 1391.75,698.626 1394.08,698.292 1396.5,698.5C 1396.63,700.292 1396.3,701.958 1395.5,703.5 Z"/></g>
<g><path style="opacity:1" fill="#e0b681" d="M 531.5,695.5 C 533.833,695.5 536.167,695.5 538.5,695.5C 537.929,696.973 537.929,698.64 538.5,700.5C 540.527,700.662 542.527,700.495 544.5,700C 545.743,698.184 545.41,696.684 543.5,695.5C 545.5,695.5 547.5,695.5 549.5,695.5C 549.5,697.167 549.5,698.833 549.5,700.5C 551.527,700.662 553.527,700.495 555.5,700C 556.252,699.329 556.586,698.496 556.5,697.5C 560.403,694.931 564.403,694.931 568.5,697.5C 570.173,695.914 572.173,695.247 574.5,695.5C 578.366,697.741 578.366,700.075 574.5,702.5C 571.819,702.538 569.319,701.871 567,700.5C 561.692,701.286 556.359,701.953 551,702.5C 541.056,702.657 531.222,702.324 521.5,701.5C 526.112,700.966 530.778,700.8 535.5,701C 536.38,699.644 536.714,698.144 536.5,696.5C 534.585,696.784 532.919,696.451 531.5,695.5 Z"/></g>
<g><path style="opacity:1" fill="#be8c50" d="M 549.5,695.5 C 552.228,695.171 554.562,695.837 556.5,697.5C 556.586,698.496 556.252,699.329 555.5,700C 553.527,700.495 551.527,700.662 549.5,700.5C 549.5,698.833 549.5,697.167 549.5,695.5 Z"/></g>
<g><path style="opacity:1" fill="#c28e4a" d="M 538.5,695.5 C 540.167,695.5 541.833,695.5 543.5,695.5C 545.41,696.684 545.743,698.184 544.5,700C 542.527,700.495 540.527,700.662 538.5,700.5C 537.929,698.64 537.929,696.973 538.5,695.5 Z"/></g>
<g><path style="opacity:1" fill="#f1ebdd" d="M 1120.5,669.5 C 1120.92,670.222 1121.58,670.722 1122.5,671C 1122.14,680.293 1122.14,689.793 1122.5,699.5C 1122.5,708.859 1121.83,717.859 1120.5,726.5C 1116.17,726.5 1111.83,726.5 1107.5,726.5C 1107.5,706.833 1107.5,687.167 1107.5,667.5C 1104.81,667.664 1102.15,667.497 1099.5,667C 1105.39,665.424 1111.39,665.091 1117.5,666C 1117.97,667.729 1118.97,668.895 1120.5,669.5 Z"/></g>
<g><path style="opacity:1" fill="#ad8958" d="M 1373.5,698.5 C 1374.5,698.5 1375.5,698.5 1376.5,698.5C 1376.63,700.554 1375.97,702.221 1374.5,703.5C 1372.5,703.5 1370.5,703.5 1368.5,703.5C 1367.83,699.5 1369.5,697.833 1373.5,698.5 Z"/></g>
<g><path style="opacity:1" fill="#c59559" d="M 1425.5,698.5 C 1430.83,700.167 1430.83,701.833 1425.5,703.5C 1423.47,703.662 1421.47,703.495 1419.5,703C 1418.81,701.933 1418.31,700.766 1418,699.5C 1417.68,701.061 1416.85,702.228 1415.5,703C 1410.16,702.174 1404.83,702.341 1399.5,703.5C 1397.88,701.584 1398.22,700.084 1400.5,699C 1408.83,698.5 1417.16,698.334 1425.5,698.5 Z"/></g>
<g><path style="opacity:1" fill="#f8eccf" d="M 573.5,722.5 C 573.5,722.167 573.5,721.833 573.5,721.5C 574.708,720.766 576.041,720.433 577.5,720.5C 577.643,718.738 577.309,717.071 576.5,715.5C 571.014,714.185 565.68,714.185 560.5,715.5C 560.167,715.5 559.833,715.5 559.5,715.5C 558.668,714.671 559.001,713.838 560.5,713C 562.058,712.79 563.391,712.29 564.5,711.5C 568.146,712.283 571.812,712.45 575.5,712C 577.192,710.599 577.859,708.766 577.5,706.5C 576.209,706.737 575.209,706.404 574.5,705.5C 574.082,704.778 573.416,704.278 572.5,704C 573.416,703.722 574.082,703.222 574.5,702.5C 578.366,700.075 578.366,697.741 574.5,695.5C 574.082,694.778 573.416,694.278 572.5,694C 573.416,693.722 574.082,693.222 574.5,692.5C 577.503,692.012 578.669,690.345 578,687.5C 575.597,685.738 573.097,685.405 570.5,686.5C 569.5,686.5 568.5,686.5 567.5,686.5C 565.194,686.007 562.861,685.674 560.5,685.5C 559.022,685.762 557.689,685.429 556.5,684.5C 557.668,682.783 559.335,682.116 561.5,682.5C 562.833,682.5 564.167,682.5 565.5,682.5C 570.14,683.025 574.473,682.358 578.5,680.5C 579.423,679.697 580.423,679.53 581.5,680C 581.193,681.682 580.86,683.348 580.5,685C 583.268,690.009 583.935,695.009 582.5,700C 583.114,702.854 583.781,705.687 584.5,708.5C 583.167,708.833 581.833,709.167 580.5,709.5C 581.617,710.949 582.284,712.616 582.5,714.5C 581.863,717.496 580.53,720.163 578.5,722.5C 576.833,723.666 575.166,723.666 573.5,722.5 Z"/></g>
<g><path style="opacity:1" fill="#e9caa2" d="M 685.5,690.5 C 686.167,690.5 686.833,690.5 687.5,690.5C 698.686,690.855 710.019,691.188 721.5,691.5C 720.89,692.391 720.557,693.391 720.5,694.5C 715.833,694.5 711.167,694.5 706.5,694.5C 706.104,697.044 706.771,699.211 708.5,701C 713.872,701.052 719.205,700.552 724.5,699.5C 723.251,701.136 721.584,702.303 719.5,703C 720.056,703.383 720.389,703.883 720.5,704.5C 715.685,705.212 711.018,705.545 706.5,705.5C 694.59,704.774 682.256,704.774 669.5,705.5C 669.833,704.167 670.167,702.833 670.5,701.5C 681.817,700.898 693.15,700.231 704.5,699.5C 704.833,698.833 705.167,698.167 705.5,697.5C 703.594,695.758 701.26,694.758 698.5,694.5C 695.5,695.833 692.5,695.833 689.5,694.5C 687.945,694.722 686.611,695.389 685.5,696.5C 683.833,695.833 682.167,695.167 680.5,694.5C 678.141,695.987 675.807,696.32 673.5,695.5C 671.672,694.717 670.339,693.384 669.5,691.5C 675.026,691.821 680.36,691.488 685.5,690.5 Z"/></g>
<g><path style="opacity:1" fill="#b8a17e" d="M 1022.5,680.5 C 1025.14,680.488 1026.48,681.821 1026.5,684.5C 1026.81,696.884 1026.48,709.217 1025.5,721.5C 1024.97,722.192 1024.31,722.692 1023.5,723C 1015.17,723.5 1006.84,723.666 998.5,723.5C 1002.97,722.514 1007.64,722.181 1012.5,722.5C 1014.5,722.5 1016.5,722.5 1018.5,722.5C 1019.98,722.762 1021.31,722.429 1022.5,721.5C 1023,718.338 1022.33,715.338 1020.5,712.5C 1020.05,709.776 1021.05,707.943 1023.5,707C 1023,706.5 1022.5,706 1022,705.5C 1021.5,697.841 1021.33,690.174 1021.5,682.5C 1020.45,682.649 1019.45,682.483 1018.5,682C 1020.06,681.79 1021.39,681.29 1022.5,680.5 Z"/></g>
<g><path style="opacity:1" fill="#a28d75" d="M 1042.5,714.5 C 1042.17,715.5 1041.5,716.167 1040.5,716.5C 1037.5,716.5 1034.5,716.5 1031.5,716.5C 1034.56,715.799 1037.73,715.132 1041,714.5C 1040.88,706.215 1041.04,697.882 1041.5,689.5C 1039.5,689.167 1037.5,688.833 1035.5,688.5C 1033.97,688.427 1032.97,689.094 1032.5,690.5C 1031.83,695.167 1031.17,699.833 1030.5,704.5C 1030.5,698.167 1030.5,691.833 1030.5,685.5C 1034.5,685.5 1038.5,685.5 1042.5,685.5C 1042.5,695.167 1042.5,704.833 1042.5,714.5 Z"/></g>
<g><path style="opacity:1" fill="#c0a786" d="M 1231.5,697.5 C 1230.23,698.189 1230.23,699.023 1231.5,700C 1229.83,701.669 1227.83,702.502 1225.5,702.5C 1225.71,704.144 1225.38,705.644 1224.5,707C 1226.53,706.502 1228.53,706.669 1230.5,707.5C 1231.81,708.865 1231.81,710.198 1230.5,711.5C 1228.8,711.34 1227.13,711.506 1225.5,712C 1226.83,713 1226.83,714 1225.5,715C 1226.17,715.333 1226.83,715.667 1227.5,716C 1226.48,717.049 1226.32,718.216 1227,719.5C 1228.34,715.639 1229.84,715.639 1231.5,719.5C 1230.76,720.182 1230.09,720.849 1229.5,721.5C 1229.5,722.167 1229.17,722.5 1228.5,722.5C 1225.17,722.838 1223.51,721.338 1223.5,718C 1224.99,714.973 1224.66,712.14 1222.5,709.5C 1223.81,705.611 1224.48,701.611 1224.5,697.5C 1226.98,696.377 1229.31,696.377 1231.5,697.5 Z"/></g>
<g><path style="opacity:1" fill="#d0bb90" d="M 929.5,679.5 C 932.167,679.5 934.833,679.5 937.5,679.5C 937.335,682.85 937.502,686.183 938,689.5C 940.436,697.045 941.936,704.712 942.5,712.5C 943.635,714.088 944.969,714.421 946.5,713.5C 950.597,715.185 954.931,716.018 959.5,716C 960,716.5 960.5,717 961,717.5C 964.781,718.146 968.447,717.48 972,715.5C 973.356,716.38 974.856,716.714 976.5,716.5C 976.5,717.833 976.5,719.167 976.5,720.5C 966.185,721.267 955.852,721.601 945.5,721.5C 940.156,721.666 934.823,721.499 929.5,721C 925.85,717.855 925.517,714.355 928.5,710.5C 928.523,708.933 928.023,707.6 927,706.5C 926.879,698.708 926.712,691.208 926.5,684C 927.315,682.357 928.315,680.857 929.5,679.5 Z"/></g>
<g><path style="opacity:1" fill="#e5c89d" d="M 1231.5,697.5 C 1232.5,697.5 1233.5,697.5 1234.5,697.5C 1234.5,698.833 1234.5,700.167 1234.5,701.5C 1239.5,701.5 1244.5,701.5 1249.5,701.5C 1245.69,702.324 1241.69,702.824 1237.5,703C 1236.83,703.333 1236.17,703.667 1235.5,704C 1238.38,706.056 1241.22,705.889 1244,703.5C 1249.51,705.029 1255.01,706.029 1260.5,706.5C 1258.93,706.641 1257.27,706.974 1255.5,707.5C 1254.57,708.689 1254.24,710.022 1254.5,711.5C 1256.2,711.66 1257.87,711.494 1259.5,711C 1260.76,710.583 1261.42,709.75 1261.5,708.5C 1262.39,707.89 1263.39,707.557 1264.5,707.5C 1264.5,708.833 1264.5,710.167 1264.5,711.5C 1266.5,711.5 1268.5,711.5 1270.5,711.5C 1267.67,713.984 1264.67,713.984 1261.5,711.5C 1254.19,712.718 1246.85,712.718 1239.5,711.5C 1236.67,712.368 1233.67,712.368 1230.5,711.5C 1231.81,710.198 1231.81,708.865 1230.5,707.5C 1228.53,706.669 1226.53,706.502 1224.5,707C 1225.38,705.644 1225.71,704.144 1225.5,702.5C 1227.83,702.502 1229.83,701.669 1231.5,700C 1230.23,699.023 1230.23,698.189 1231.5,697.5 Z"/></g>
<g><path style="opacity:1" fill="#eeece0" d="M 1450.5,672.5 C 1450.18,674.048 1449.18,674.715 1447.5,674.5C 1447.18,680.69 1447.51,686.69 1448.5,692.5C 1448.19,704.551 1448.52,716.551 1449.5,728.5C 1446.23,729.487 1442.9,729.82 1439.5,729.5C 1439.02,710.487 1438.36,691.487 1437.5,672.5C 1439.86,672.663 1442.19,672.497 1444.5,672C 1441.61,670.433 1438.61,670.267 1435.5,671.5C 1438.68,669.586 1442.35,668.92 1446.5,669.5C 1446.5,670.5 1446.5,671.5 1446.5,672.5C 1447.83,672.5 1449.17,672.5 1450.5,672.5 Z"/></g>
<g><path style="opacity:0.251" fill="#afa396" d="M 1450.5,672.5 C 1450.83,672.5 1451.17,672.5 1451.5,672.5C 1451.5,673.833 1451.5,675.167 1451.5,676.5C 1450.5,676.5 1449.5,676.5 1448.5,676.5C 1448.61,681.71 1449.28,686.71 1450.5,691.5C 1450.59,702.459 1450.59,713.292 1450.5,724C 1453.67,725.488 1454.67,727.655 1453.5,730.5C 1453.88,728.058 1453.21,727.391 1451.5,728.5C 1450.81,727.975 1450.31,727.308 1450,726.5C 1449.83,714.993 1449.33,703.659 1448.5,692.5C 1447.51,686.69 1447.18,680.69 1447.5,674.5C 1449.18,674.715 1450.18,674.048 1450.5,672.5 Z"/></g>
<g><path style="opacity:1" fill="#cd9655" d="M 517.5,706.5 C 517.5,705.833 517.833,705.5 518.5,705.5C 522.566,706.513 526.399,706.18 530,704.5C 532.333,705.167 534.667,705.833 537,706.5C 539.818,705.409 542.651,705.409 545.5,706.5C 546.245,709.93 544.911,711.597 541.5,711.5C 534.216,711.572 526.883,711.072 519.5,710C 518.177,709.184 517.511,708.017 517.5,706.5 Z"/></g>
<g><path style="opacity:1" fill="#c7924d" d="M 706.5,705.5 C 707.316,707.144 708.65,708.31 710.5,709C 706.294,709.056 701.961,709.223 697.5,709.5C 696.352,708.105 695.352,708.272 694.5,710C 692.667,710.167 690.833,710.333 689,710.5C 682.584,710.069 676.084,710.069 669.5,710.5C 669.5,708.833 669.5,707.167 669.5,705.5C 682.256,704.774 694.59,704.774 706.5,705.5 Z"/></g>
<g><path style="opacity:1" fill="#b38b5b" d="M 1035.5,688.5 C 1037.5,688.833 1039.5,689.167 1041.5,689.5C 1041.04,697.882 1040.88,706.215 1041,714.5C 1037.73,715.132 1034.56,715.799 1031.5,716.5C 1030.52,712.702 1030.18,708.702 1030.5,704.5C 1031.17,699.833 1031.83,695.167 1032.5,690.5C 1033.01,695.869 1033.84,701.202 1035,706.5C 1035.99,705.061 1037.32,704.061 1039,703.5C 1039.4,700.793 1039.9,698.127 1040.5,695.5C 1040.82,691.828 1039.15,690.162 1035.5,690.5C 1035.5,689.833 1035.5,689.167 1035.5,688.5 Z"/></g>
<g><path style="opacity:1" fill="#d68219" d="M 1035.5,690.5 C 1039.15,690.162 1040.82,691.828 1040.5,695.5C 1039.88,695.611 1039.38,695.944 1039,696.5C 1038.5,698.473 1038.34,700.473 1038.5,702.5C 1037.5,702.5 1036.5,702.5 1035.5,702.5C 1035.46,699.379 1034.8,696.379 1033.5,693.5C 1033.64,691.97 1034.31,690.97 1035.5,690.5 Z"/></g>
<g><path style="opacity:1" fill="#d4d0c6" d="M 1336.5,672.5 C 1331.56,671.608 1326.56,671.274 1321.5,671.5C 1322.44,689.139 1322.78,706.806 1322.5,724.5C 1321.7,705.951 1320.7,687.284 1319.5,668.5C 1324.56,667.175 1329.56,667.508 1334.5,669.5C 1335.61,670.265 1336.28,671.265 1336.5,672.5 Z"/></g>
<g><path style="opacity:1" fill="#cf9c58" d="M 566.5,706.5 C 566.169,708.322 565.502,709.989 564.5,711.5C 560.092,711.938 558.425,709.938 559.5,705.5C 561.903,705.448 564.236,705.781 566.5,706.5 Z"/></g>
<g><path style="opacity:1" fill="#c09054" d="M 1239.5,711.5 C 1235.5,712.167 1233.83,710.5 1234.5,706.5C 1236.83,706.5 1239.17,706.5 1241.5,706.5C 1241.63,708.554 1240.97,710.221 1239.5,711.5 Z"/></g>
<g><path style="opacity:1" fill="#c69b6a" d="M 1371.5,707.5 C 1380.17,707.5 1388.83,707.5 1397.5,707.5C 1397.36,712.138 1395.03,713.972 1390.5,713C 1389.11,711.829 1388.27,710.329 1388,708.5C 1386.32,713.809 1383.16,714.809 1378.5,711.5C 1376.92,712.456 1375.26,713.123 1373.5,713.5C 1372.18,713.67 1371.01,713.337 1370,712.5C 1369.12,710.326 1369.62,708.659 1371.5,707.5 Z"/></g>
<g><path style="opacity:1" fill="#eee5d1" d="M 523.5,669.5 C 537.167,669.5 550.833,669.5 564.5,669.5C 577.465,670.415 590.799,670.748 604.5,670.5C 598.013,671.328 591.346,671.828 584.5,672C 588.035,673.492 589.368,675.992 588.5,679.5C 589.41,683.778 590.077,688.111 590.5,692.5C 588.244,699.475 588.244,706.475 590.5,713.5C 588.775,716.84 586.775,720.007 584.5,723C 585.833,724 585.833,725 584.5,726C 593.16,726.5 601.827,726.666 610.5,726.5C 610.5,727.167 610.5,727.833 610.5,728.5C 610.167,728.5 609.833,728.5 609.5,728.5C 592.338,727.668 575.005,727.168 557.5,727C 559.536,726.546 561.37,725.713 563,724.5C 566.954,726.076 570.454,725.409 573.5,722.5C 575.166,723.666 576.833,723.666 578.5,722.5C 580.53,720.163 581.863,717.496 582.5,714.5C 582.284,712.616 581.617,710.949 580.5,709.5C 581.833,709.167 583.167,708.833 584.5,708.5C 583.781,705.687 583.114,702.854 582.5,700C 583.935,695.009 583.268,690.009 580.5,685C 580.86,683.348 581.193,681.682 581.5,680C 580.423,679.53 579.423,679.697 578.5,680.5C 576.74,675.787 573.74,674.787 569.5,677.5C 567.925,676.544 566.258,675.877 564.5,675.5C 562.302,675.12 560.635,675.787 559.5,677.5C 558.833,677.5 558.167,677.5 557.5,677.5C 555.063,675.561 552.397,675.227 549.5,676.5C 548.833,676.833 548.167,677.167 547.5,677.5C 544.207,674.981 540.874,674.981 537.5,677.5C 535.427,676.531 533.261,675.865 531,675.5C 526.526,676.377 522.026,676.377 517.5,675.5C 517.539,674.417 517.873,673.417 518.5,672.5C 517.271,671.719 515.938,671.219 514.5,671C 517.695,670.819 520.695,670.319 523.5,669.5 Z"/></g>
<g><path style="opacity:1" fill="#d4a568" d="M 706.5,705.5 C 711.018,705.545 715.685,705.212 720.5,704.5C 721.708,705.234 723.041,705.567 724.5,705.5C 724.634,707.292 724.301,708.958 723.5,710.5C 714.651,710.826 705.984,710.493 697.5,709.5C 701.961,709.223 706.294,709.056 710.5,709C 708.65,708.31 707.316,707.144 706.5,705.5 Z"/></g>
<g><path style="opacity:1" fill="#ece4d2" d="M 944.5,681.5 C 943.506,690.986 943.173,700.652 943.5,710.5C 964.489,711.301 985.489,711.301 1006.5,710.5C 1006.67,709.178 1006.34,708.011 1005.5,707C 1006.15,698.735 1006.82,690.568 1007.5,682.5C 1007.5,692.5 1007.5,702.5 1007.5,712.5C 1002.83,712.5 998.167,712.5 993.5,712.5C 976.5,712.5 959.5,712.5 942.5,712.5C 941.936,704.712 940.436,697.045 938,689.5C 937.502,686.183 937.335,682.85 937.5,679.5C 934.833,679.5 932.167,679.5 929.5,679.5C 927.508,679.328 925.842,679.995 924.5,681.5C 923.501,694.149 923.168,706.816 923.5,719.5C 922.2,718.892 920.867,718.225 919.5,717.5C 916.752,719.291 913.752,719.791 910.5,719C 908.667,718.5 907.5,717.333 907,715.5C 906.175,705.325 906.342,695.325 907.5,685.5C 907.511,683.983 908.177,682.816 909.5,682C 914.009,682.152 917.675,680.485 920.5,677C 926.553,676.638 932.553,677.138 938.5,678.5C 940.884,679.011 942.884,680.011 944.5,681.5 Z"/></g>
<g><path style="opacity:1" fill="#ddb77f" d="M 917.5,695.5 C 917.64,701.536 917.307,707.536 916.5,713.5C 914.833,713.5 913.167,713.5 911.5,713.5C 911.517,711.435 911.85,709.435 912.5,707.5C 913.5,707.5 914.5,707.5 915.5,707.5C 915.344,703.236 916.011,699.236 917.5,695.5 Z"/></g>
<g><path style="opacity:1" fill="#cb914b" d="M 913.5,687.5 C 917.095,688.85 918.428,691.517 917.5,695.5C 916.011,699.236 915.344,703.236 915.5,707.5C 914.5,707.5 913.5,707.5 912.5,707.5C 912.915,702.66 912.248,697.993 910.5,693.5C 911.187,691.823 911.854,690.156 912.5,688.5C 912.5,687.833 912.833,687.5 913.5,687.5 Z"/></g>
<g><path style="opacity:1" fill="#e3d0a2" d="M 907.5,685.5 C 908.5,685.5 909.5,685.5 910.5,685.5C 910.343,686.873 910.51,688.207 911,689.5C 911.383,688.944 911.883,688.611 912.5,688.5C 911.854,690.156 911.187,691.823 910.5,693.5C 912.248,697.993 912.915,702.66 912.5,707.5C 911.85,709.435 911.517,711.435 911.5,713.5C 908.97,708.245 907.97,702.579 908.5,696.5C 907.756,692.881 907.423,689.215 907.5,685.5 Z"/></g>
<g><path style="opacity:1" fill="#be904f" d="M 1264.5,707.5 C 1266.83,707.5 1269.17,707.5 1271.5,707.5C 1271.57,708.959 1271.23,710.292 1270.5,711.5C 1268.5,711.5 1266.5,711.5 1264.5,711.5C 1264.5,710.167 1264.5,708.833 1264.5,707.5 Z"/></g>
<g><path style="opacity:1" fill="#a0845f" d="M 1010.5,680.5 C 1014.5,679.167 1018.5,679.167 1022.5,680.5C 1021.39,681.29 1020.06,681.79 1018.5,682C 1019.45,682.483 1020.45,682.649 1021.5,682.5C 1021.33,690.174 1021.5,697.841 1022,705.5C 1022.5,706 1023,706.5 1023.5,707C 1021.05,707.943 1020.05,709.776 1020.5,712.5C 1022.33,715.338 1023,718.338 1022.5,721.5C 1021.31,722.429 1019.98,722.762 1018.5,722.5C 1017.27,720.99 1017.27,719.49 1018.5,718C 1017.03,717.29 1016.36,716.124 1016.5,714.5C 1011.05,714.545 1010.55,713.545 1015,711.5C 1015.5,708.854 1015.66,706.187 1015.5,703.5C 1019.12,703.351 1019.46,702.184 1016.5,700C 1017.3,694.186 1017.14,688.353 1016,682.5C 1014.6,680.808 1012.77,680.141 1010.5,680.5 Z"/></g>
<g><path style="opacity:1" fill="#c5975b" d="M 1244.5,706.5 C 1247.6,705.971 1249.94,706.971 1251.5,709.5C 1249.49,711.171 1247.16,711.838 1244.5,711.5C 1244.5,709.833 1244.5,708.167 1244.5,706.5 Z"/></g>
<g><path style="opacity:1" fill="#b68d4f" d="M 1260.5,706.5 C 1261.34,706.842 1261.67,707.508 1261.5,708.5C 1261.42,709.75 1260.76,710.583 1259.5,711C 1257.87,711.494 1256.2,711.66 1254.5,711.5C 1254.24,710.022 1254.57,708.689 1255.5,707.5C 1257.27,706.974 1258.93,706.641 1260.5,706.5 Z"/></g>
<g><path style="opacity:1" fill="#cca165" d="M 1275.5,705.5 C 1277.22,706.224 1279.05,706.891 1281,707.5C 1282.24,710.926 1281.07,712.592 1277.5,712.5C 1275.1,712.552 1272.76,712.219 1270.5,711.5C 1271.23,710.292 1271.57,708.959 1271.5,707.5C 1269.17,707.5 1266.83,707.5 1264.5,707.5C 1268.02,706.693 1271.69,706.026 1275.5,705.5 Z"/></g>
<g><path style="opacity:1" fill="#e3bc8b" d="M 574.5,705.5 C 575.209,706.404 576.209,706.737 577.5,706.5C 577.859,708.766 577.192,710.599 575.5,712C 571.812,712.45 568.146,712.283 564.5,711.5C 565.502,709.989 566.169,708.322 566.5,706.5C 569.167,706.167 571.833,705.833 574.5,705.5 Z"/></g>
<g><path style="opacity:1" fill="#f2eed7" d="M 1434.5,692.5 C 1435.17,700.483 1435.5,708.483 1435.5,716.5C 1434.78,716.082 1434.28,715.416 1434,714.5C 1433.58,718.191 1433.08,721.858 1432.5,725.5C 1429.19,726.59 1426.19,725.923 1423.5,723.5C 1424.64,722.661 1425.97,721.994 1427.5,721.5C 1427.83,720.833 1428.17,720.167 1428.5,719.5C 1428.25,718.287 1427.59,717.62 1426.5,717.5C 1425.39,716.71 1424.06,716.21 1422.5,716C 1423.59,714.45 1424.92,713.283 1426.5,712.5C 1426.83,712.5 1427.17,712.5 1427.5,712.5C 1430.08,712.278 1430.91,710.945 1430,708.5C 1427.2,707.875 1424.37,707.208 1421.5,706.5C 1422.62,705.141 1423.96,704.141 1425.5,703.5C 1430.83,701.833 1430.83,700.167 1425.5,698.5C 1424.43,697.566 1423.1,697.232 1421.5,697.5C 1421.39,696.883 1421.06,696.383 1420.5,696C 1421.42,695.722 1422.08,695.222 1422.5,694.5C 1423.49,694.672 1424.16,694.338 1424.5,693.5C 1425.59,693.38 1426.25,692.713 1426.5,691.5C 1426.46,690.584 1426.12,689.917 1425.5,689.5C 1424.65,688.034 1423.32,687.2 1421.5,687C 1422.25,686.329 1422.59,685.496 1422.5,684.5C 1423.47,683.691 1424.3,682.691 1425,681.5C 1425.33,681.833 1425.67,682.167 1426,682.5C 1426.49,681.207 1426.66,679.873 1426.5,678.5C 1424.83,678.5 1423.17,678.5 1421.5,678.5C 1420.21,678.737 1419.21,678.404 1418.5,677.5C 1421.21,675.513 1424.21,674.679 1427.5,675C 1427.17,675.333 1426.83,675.667 1426.5,676C 1427.5,676.333 1428.5,676.667 1429.5,677C 1429.17,677.333 1428.83,677.667 1428.5,678C 1430.03,679.95 1431.2,682.117 1432,684.5C 1432.35,686.218 1432.85,687.885 1433.5,689.5C 1432.22,690.922 1432.56,691.922 1434.5,692.5 Z"/></g>
<g><path style="opacity:1" fill="#e2decd" d="M 650.5,670.5 C 659.167,670.5 667.833,670.5 676.5,670.5C 676.918,671.222 677.584,671.722 678.5,672C 677.584,672.278 676.918,672.778 676.5,673.5C 673.646,673.437 670.646,673.77 667.5,674.5C 664.904,675.265 662.237,675.599 659.5,675.5C 659.5,676.5 659.5,677.5 659.5,678.5C 660.552,678.351 661.552,678.517 662.5,679C 663.492,682.07 663.159,685.07 661.5,688C 664.16,691.353 664.16,694.686 661.5,698C 663.166,700.492 662.833,702.659 660.5,704.5C 663.136,708.432 662.802,711.932 659.5,715C 660.416,715.374 661.25,715.874 662,716.5C 662.413,719.232 663.08,721.899 664,724.5C 665.739,723.106 667.739,722.439 670,722.5C 682.703,723.348 695.203,723.348 707.5,722.5C 709.412,721.201 711.412,720.201 713.5,719.5C 714.791,719.263 715.791,719.596 716.5,720.5C 718.076,721.143 719.41,722.143 720.5,723.5C 720.5,724.5 720.5,725.5 720.5,726.5C 699.325,725.249 688.658,725.582 688.5,727.5C 669.007,728.497 649.34,728.83 629.5,728.5C 628.209,728.737 627.209,728.404 626.5,727.5C 636.839,727.666 647.172,727.5 657.5,727C 647.839,726.5 638.172,726.334 628.5,726.5C 628.722,708.164 629.056,689.831 629.5,671.5C 636.687,671.825 643.687,671.491 650.5,670.5 Z"/></g>
<g><path style="opacity:1" fill="#e7c6a4" d="M 697.5,709.5 C 705.984,710.493 714.651,710.826 723.5,710.5C 722.4,711.558 721.066,712.392 719.5,713C 721.134,713.494 722.801,713.66 724.5,713.5C 724.5,716.167 724.5,718.833 724.5,721.5C 723.817,723.176 722.483,723.843 720.5,723.5C 719.41,722.143 718.076,721.143 716.5,720.5C 721.931,721.906 724.265,719.906 723.5,714.5C 719.987,713.876 717.153,714.876 715,717.5C 713.281,715.684 711.115,714.684 708.5,714.5C 702.653,714.552 696.819,714.552 691,714.5C 688.578,714.482 686.412,715.149 684.5,716.5C 679.189,716.639 673.855,716.472 668.5,716C 667.167,717.333 667.167,718.667 668.5,720C 678.718,720.277 688.885,720.444 699,720.5C 703.673,718.56 708.507,718.227 713.5,719.5C 711.412,720.201 709.412,721.201 707.5,722.5C 694.199,721.721 680.865,721.221 667.5,721C 666.692,720.692 666.025,720.192 665.5,719.5C 666.599,716.31 667.932,713.31 669.5,710.5C 676.084,710.069 682.584,710.069 689,710.5C 690.833,710.333 692.667,710.167 694.5,710C 695.352,708.272 696.352,708.105 697.5,709.5 Z"/></g>
<g><path style="opacity:1" fill="#99928e" d="M 1105.5,670.5 C 1106.83,689.167 1106.83,707.833 1105.5,726.5C 1105.83,711.657 1105.5,696.99 1104.5,682.5C 1104.18,678.298 1104.52,674.298 1105.5,670.5 Z"/></g>
<g><path style="opacity:1" fill="#e8d0b2" d="M 1230.5,711.5 C 1233.67,712.368 1236.67,712.368 1239.5,711.5C 1246.85,712.718 1254.19,712.718 1261.5,711.5C 1264.67,713.984 1267.67,713.984 1270.5,711.5C 1272.76,712.219 1275.1,712.552 1277.5,712.5C 1277.42,713.75 1276.76,714.583 1275.5,715C 1276.06,715.383 1276.39,715.883 1276.5,716.5C 1272.82,716.335 1269.15,716.501 1265.5,717C 1264.62,718.356 1264.29,719.856 1264.5,721.5C 1263.17,721.5 1261.83,721.5 1260.5,721.5C 1261.07,720.027 1261.07,718.36 1260.5,716.5C 1258.47,716.338 1256.47,716.505 1254.5,717C 1253.29,718.113 1253.29,719.28 1254.5,720.5C 1256.05,721.452 1257.71,721.785 1259.5,721.5C 1258.51,723.026 1257.01,723.693 1255,723.5C 1248.15,723.242 1241.31,722.908 1234.5,722.5C 1233.52,722.977 1232.69,723.643 1232,724.5C 1231.38,723.551 1231.55,722.718 1232.5,722C 1231.55,721.517 1230.55,721.351 1229.5,721.5C 1230.09,720.849 1230.76,720.182 1231.5,719.5C 1229.84,715.639 1228.34,715.639 1227,719.5C 1226.32,718.216 1226.48,717.049 1227.5,716C 1226.83,715.667 1226.17,715.333 1225.5,715C 1226.83,714 1226.83,713 1225.5,712C 1227.13,711.506 1228.8,711.34 1230.5,711.5 Z"/></g>
<g><path style="opacity:1" fill="#f2f1ec" d="M 904.5,716.5 C 903.737,718.567 902.404,720.234 900.5,721.5C 902.663,723.316 905.163,724.316 908,724.5C 936.482,724.558 964.982,724.725 993.5,725C 992.944,725.383 992.611,725.883 992.5,726.5C 956.167,726.5 919.833,726.5 883.5,726.5C 875.833,726.5 868.167,726.5 860.5,726.5C 857.375,725.521 854.042,725.187 850.5,725.5C 857.833,724.833 865.167,724.167 872.5,723.5C 871.378,717.442 870.378,711.442 869.5,705.5C 871.199,705.66 872.866,705.494 874.5,705C 872.381,702.782 872.048,700.282 873.5,697.5C 876.474,701.162 880.141,702.829 884.5,702.5C 886.6,703.781 888.266,705.448 889.5,707.5C 892.268,708.944 894.934,710.444 897.5,712C 899.213,713.378 900.547,715.045 901.5,717C 902.577,717.47 903.577,717.303 904.5,716.5 Z"/></g>
<g><path style="opacity:1" fill="#eed5ac" d="M 517.5,696.5 C 517.369,699.367 518.703,701.033 521.5,701.5C 531.222,702.324 541.056,702.657 551,702.5C 556.359,701.953 561.692,701.286 567,700.5C 569.319,701.871 571.819,702.538 574.5,702.5C 574.082,703.222 573.416,703.722 572.5,704C 573.416,704.278 574.082,704.778 574.5,705.5C 571.833,705.833 569.167,706.167 566.5,706.5C 564.236,705.781 561.903,705.448 559.5,705.5C 558.425,709.938 560.092,711.938 564.5,711.5C 563.391,712.29 562.058,712.79 560.5,713C 559.001,713.838 558.668,714.671 559.5,715.5C 558.135,717.751 558.469,719.751 560.5,721.5C 546.492,722.352 532.492,722.852 518.5,723C 517.748,722.329 517.414,721.496 517.5,720.5C 522.259,720.982 526.926,720.982 531.5,720.5C 533.693,720.674 535.527,720.007 537,718.5C 539.456,720.321 542.289,720.988 545.5,720.5C 545.5,718.833 545.5,717.167 545.5,715.5C 536.473,715.577 527.473,715.577 518.5,715.5C 519.574,714.115 520.907,712.949 522.5,712C 520.744,711.798 519.078,711.298 517.5,710.5C 516.295,709.005 516.295,707.672 517.5,706.5C 517.511,708.017 518.177,709.184 519.5,710C 526.883,711.072 534.216,711.572 541.5,711.5C 544.911,711.597 546.245,709.93 545.5,706.5C 542.651,705.409 539.818,705.409 537,706.5C 534.667,705.833 532.333,705.167 530,704.5C 526.399,706.18 522.566,706.513 518.5,705.5C 518.085,703.253 517.418,701.086 516.5,699C 516.528,697.93 516.861,697.097 517.5,696.5 Z"/></g>
<g><path style="opacity:1" fill="#cb9558" d="M 549.5,705.5 C 553.931,704.53 556.265,706.197 556.5,710.5C 553.833,710.5 551.167,710.5 548.5,710.5C 548.366,708.708 548.699,707.042 549.5,705.5 Z"/></g>
<g><path style="opacity:1" fill="#e6c897" d="M 560.5,715.5 C 565.68,714.185 571.014,714.185 576.5,715.5C 577.309,717.071 577.643,718.738 577.5,720.5C 576.041,720.433 574.708,720.766 573.5,721.5C 569.833,721.5 566.167,721.5 562.5,721.5C 563.287,719.896 564.62,719.229 566.5,719.5C 565.969,716.221 563.969,714.887 560.5,715.5 Z"/></g>
<g><path style="opacity:1" fill="#e6cea7" d="M 1425.5,703.5 C 1423.96,704.141 1422.62,705.141 1421.5,706.5C 1424.37,707.208 1427.2,707.875 1430,708.5C 1430.91,710.945 1430.08,712.278 1427.5,712.5C 1427.5,711.167 1427.5,709.833 1427.5,708.5C 1424.83,708.5 1422.17,708.5 1419.5,708.5C 1418.83,712.5 1418.17,712.5 1417.5,708.5C 1414.83,708.5 1412.17,708.5 1409.5,708.5C 1409.33,709.822 1409.66,710.989 1410.5,712C 1415.82,712.499 1421.16,712.666 1426.5,712.5C 1424.92,713.283 1423.59,714.45 1422.5,716C 1424.06,716.21 1425.39,716.71 1426.5,717.5C 1420.69,717.122 1415.02,717.789 1409.5,719.5C 1410.13,720.417 1410.46,721.417 1410.5,722.5C 1409.83,722.5 1409.17,722.5 1408.5,722.5C 1408.5,720.833 1408.5,719.167 1408.5,717.5C 1406.14,717.337 1403.81,717.503 1401.5,718C 1399.45,719.226 1399.12,720.726 1400.5,722.5C 1399.5,722.5 1398.5,722.5 1397.5,722.5C 1397.5,721.167 1397.5,719.833 1397.5,718.5C 1396.17,718.5 1394.83,718.5 1393.5,718.5C 1393.17,722.5 1392.83,722.5 1392.5,718.5C 1391.5,718.5 1390.5,718.5 1389.5,718.5C 1389.43,719.959 1389.77,721.292 1390.5,722.5C 1389.17,722.5 1387.83,722.5 1386.5,722.5C 1386.92,721.778 1387.58,721.278 1388.5,721C 1387.17,720 1387.17,719 1388.5,718C 1385.9,717.231 1383.4,717.398 1381,718.5C 1380.51,719.793 1380.34,721.127 1380.5,722.5C 1378.14,722.674 1375.81,723.007 1373.5,723.5C 1373.5,723.167 1373.5,722.833 1373.5,722.5C 1376.48,722.213 1377.82,720.546 1377.5,717.5C 1375.83,717.5 1374.17,717.5 1372.5,717.5C 1371.17,715.805 1371.51,714.472 1373.5,713.5C 1375.26,713.123 1376.92,712.456 1378.5,711.5C 1383.16,714.809 1386.32,713.809 1388,708.5C 1388.27,710.329 1389.11,711.829 1390.5,713C 1395.03,713.972 1397.36,712.138 1397.5,707.5C 1388.83,707.5 1380.17,707.5 1371.5,707.5C 1371.5,706.5 1371.5,705.5 1371.5,704.5C 1372.79,704.737 1373.79,704.404 1374.5,703.5C 1376.22,703.371 1377.88,703.038 1379.5,702.5C 1381.5,703.833 1383.5,703.833 1385.5,702.5C 1386.83,702.5 1388.17,702.5 1389.5,702.5C 1391.26,703.461 1393.26,703.795 1395.5,703.5C 1396.83,703.5 1398.17,703.5 1399.5,703.5C 1404.83,702.341 1410.16,702.174 1415.5,703C 1416.85,702.228 1417.68,701.061 1418,699.5C 1418.31,700.766 1418.81,701.933 1419.5,703C 1421.47,703.495 1423.47,703.662 1425.5,703.5 Z"/></g>
<g><path style="opacity:1" fill="#c09153" d="M 1427.5,712.5 C 1427.17,712.5 1426.83,712.5 1426.5,712.5C 1421.16,712.666 1415.82,712.499 1410.5,712C 1409.66,710.989 1409.33,709.822 1409.5,708.5C 1412.17,708.5 1414.83,708.5 1417.5,708.5C 1418.17,712.5 1418.83,712.5 1419.5,708.5C 1422.17,708.5 1424.83,708.5 1427.5,708.5C 1427.5,709.833 1427.5,711.167 1427.5,712.5 Z"/></g>
<g><path style="opacity:1" fill="#b98c4f" d="M 1400.5,708.5 C 1402.83,708.5 1405.17,708.5 1407.5,708.5C 1407.12,713.181 1404.79,714.515 1400.5,712.5C 1399.19,711.135 1399.19,709.802 1400.5,708.5 Z"/></g>
<g><path style="opacity:1" fill="#cbb795" d="M 908.5,696.5 C 907.97,702.579 908.97,708.245 911.5,713.5C 913.167,713.5 914.833,713.5 916.5,713.5C 917.307,707.536 917.64,701.536 917.5,695.5C 918.428,691.517 917.095,688.85 913.5,687.5C 914.811,684.867 916.311,684.867 918,687.5C 918.5,697.161 918.666,706.828 918.5,716.5C 909.622,716.939 905.955,712.606 907.5,703.5C 907.503,700.975 907.837,698.641 908.5,696.5 Z"/></g>
<g><path style="opacity:1" fill="#bfaa83" d="M 942.5,712.5 C 959.5,712.5 976.5,712.5 993.5,712.5C 991.372,713.281 991.205,714.281 993,715.5C 993.667,717.167 993.667,718.833 993,720.5C 992.329,721.252 991.496,721.586 990.5,721.5C 975.337,722.573 960.337,722.573 945.5,721.5C 955.852,721.601 966.185,721.267 976.5,720.5C 976.5,719.167 976.5,717.833 976.5,716.5C 974.856,716.714 973.356,716.38 972,715.5C 968.447,717.48 964.781,718.146 961,717.5C 960.5,717 960,716.5 959.5,716C 954.931,716.018 950.597,715.185 946.5,713.5C 944.969,714.421 943.635,714.088 942.5,712.5 Z"/></g>
<g><path style="opacity:1" fill="#c29762" d="M 549.5,715.5 C 551.527,715.338 553.527,715.505 555.5,716C 556.38,717.356 556.714,718.856 556.5,720.5C 554.143,720.663 551.81,720.497 549.5,720C 548.272,718.51 548.272,717.01 549.5,715.5 Z"/></g>
<g><path style="opacity:1" fill="#bc9959" d="M 1235.5,716.5 C 1237.5,716.5 1239.5,716.5 1241.5,716.5C 1241.71,718.144 1241.38,719.644 1240.5,721C 1238.53,721.495 1236.53,721.662 1234.5,721.5C 1234.37,719.708 1234.7,718.042 1235.5,716.5 Z"/></g>
<g><path style="opacity:1" fill="#c0985b" d="M 716.5,720.5 C 715.791,719.596 714.791,719.263 713.5,719.5C 708.507,718.227 703.673,718.56 699,720.5C 688.885,720.444 678.718,720.277 668.5,720C 667.167,718.667 667.167,717.333 668.5,716C 673.855,716.472 679.189,716.639 684.5,716.5C 686.412,715.149 688.578,714.482 691,714.5C 696.819,714.552 702.653,714.552 708.5,714.5C 711.115,714.684 713.281,715.684 715,717.5C 717.153,714.876 719.987,713.876 723.5,714.5C 724.265,719.906 721.931,721.906 716.5,720.5 Z"/></g>
<g><path style="opacity:1" fill="#bb9a63" d="M 1245.5,716.5 C 1247.86,716.337 1250.19,716.503 1252.5,717C 1251.17,718 1251.17,719 1252.5,720C 1249.99,721.252 1247.32,721.752 1244.5,721.5C 1244.37,719.708 1244.7,718.042 1245.5,716.5 Z"/></g>
<g><path style="opacity:1" fill="#be9461" d="M 1408.5,722.5 C 1405.66,722.031 1402.99,722.031 1400.5,722.5C 1399.12,720.726 1399.45,719.226 1401.5,718C 1403.81,717.503 1406.14,717.337 1408.5,717.5C 1408.5,719.167 1408.5,720.833 1408.5,722.5 Z"/></g>
<g><path style="opacity:1" fill="#c4945b" d="M 518.5,715.5 C 527.473,715.577 536.473,715.577 545.5,715.5C 545.5,717.167 545.5,718.833 545.5,720.5C 542.289,720.988 539.456,720.321 537,718.5C 535.527,720.007 533.693,720.674 531.5,720.5C 526.926,720.982 522.259,720.982 517.5,720.5C 515.882,718.344 516.216,716.677 518.5,715.5 Z"/></g>
<g><path style="opacity:1" fill="#c29963" d="M 559.5,715.5 C 559.833,715.5 560.167,715.5 560.5,715.5C 563.969,714.887 565.969,716.221 566.5,719.5C 564.62,719.229 563.287,719.896 562.5,721.5C 561.833,721.5 561.167,721.5 560.5,721.5C 558.469,719.751 558.135,717.751 559.5,715.5 Z"/></g>
<g><path style="opacity:1" fill="#bb9359" d="M 1260.5,721.5 C 1260.17,721.5 1259.83,721.5 1259.5,721.5C 1257.71,721.785 1256.05,721.452 1254.5,720.5C 1253.29,719.28 1253.29,718.113 1254.5,717C 1256.47,716.505 1258.47,716.338 1260.5,716.5C 1261.07,718.36 1261.07,720.027 1260.5,721.5 Z"/></g>
<g><path style="opacity:1" fill="#af9054" d="M 1386.5,722.5 C 1384.5,722.5 1382.5,722.5 1380.5,722.5C 1380.34,721.127 1380.51,719.793 1381,718.5C 1383.4,717.398 1385.9,717.231 1388.5,718C 1387.17,719 1387.17,720 1388.5,721C 1387.58,721.278 1386.92,721.778 1386.5,722.5 Z"/></g>
<g><path style="opacity:1" fill="#c99d67" d="M 1276.5,716.5 C 1278.14,716.286 1279.64,716.62 1281,717.5C 1283.03,719.278 1282.86,720.611 1280.5,721.5C 1275.17,720.167 1269.83,720.167 1264.5,721.5C 1264.29,719.856 1264.62,718.356 1265.5,717C 1269.15,716.501 1272.82,716.335 1276.5,716.5 Z"/></g>
<g><path style="opacity:1" fill="#ab8c6c" d="M 1372.5,717.5 C 1374.17,717.5 1375.83,717.5 1377.5,717.5C 1377.82,720.546 1376.48,722.213 1373.5,722.5C 1368.58,721.669 1368.25,720.002 1372.5,717.5 Z"/></g>
<g><path style="opacity:1" fill="#e1d9c6" d="M 512.5,666.5 C 513.167,666.5 513.833,666.5 514.5,666.5C 514.5,667.5 514.5,668.5 514.5,669.5C 517.5,669.5 520.5,669.5 523.5,669.5C 520.695,670.319 517.695,670.819 514.5,671C 515.938,671.219 517.271,671.719 518.5,672.5C 517.873,673.417 517.539,674.417 517.5,675.5C 517.5,675.833 517.5,676.167 517.5,676.5C 511.88,679.606 512.213,681.939 518.5,683.5C 518.137,684.183 517.804,684.85 517.5,685.5C 515.911,688.311 516.577,690.311 519.5,691.5C 520.405,692.964 520.405,694.298 519.5,695.5C 518.508,695.328 517.842,695.662 517.5,696.5C 516.861,697.097 516.528,697.93 516.5,699C 517.418,701.086 518.085,703.253 518.5,705.5C 517.833,705.5 517.5,705.833 517.5,706.5C 516.295,707.672 516.295,709.005 517.5,710.5C 519.078,711.298 520.744,711.798 522.5,712C 520.907,712.949 519.574,714.115 518.5,715.5C 516.216,716.677 515.882,718.344 517.5,720.5C 517.414,721.496 517.748,722.329 518.5,723C 532.492,722.852 546.492,722.352 560.5,721.5C 561.167,721.5 561.833,721.5 562.5,721.5C 566.167,721.5 569.833,721.5 573.5,721.5C 573.5,721.833 573.5,722.167 573.5,722.5C 570.454,725.409 566.954,726.076 563,724.5C 561.37,725.713 559.536,726.546 557.5,727C 575.005,727.168 592.338,727.668 609.5,728.5C 577.167,728.5 544.833,728.5 512.5,728.5C 507.5,728.5 502.5,728.5 497.5,728.5C 500.962,727.518 504.629,727.185 508.5,727.5C 508.823,707.815 509.657,688.148 511,668.5C 511.717,667.956 512.217,667.289 512.5,666.5 Z"/></g>
<g><path style="opacity:1" fill="#a68968" d="M 1007.5,682.5 C 1007.83,682.5 1008.17,682.5 1008.5,682.5C 1008.33,692.172 1008.5,701.839 1009,711.5C 1010.03,715.221 1011.2,718.888 1012.5,722.5C 1007.64,722.181 1002.97,722.514 998.5,723.5C 995.833,723.5 993.167,723.5 990.5,723.5C 990.5,722.833 990.5,722.167 990.5,721.5C 991.496,721.586 992.329,721.252 993,720.5C 993.667,718.833 993.667,717.167 993,715.5C 991.205,714.281 991.372,713.281 993.5,712.5C 998.167,712.5 1002.83,712.5 1007.5,712.5C 1007.5,702.5 1007.5,692.5 1007.5,682.5 Z"/></g>
<g><path style="opacity:1" fill="#ad8851" d="M 1397.5,722.5 C 1395.17,722.5 1392.83,722.5 1390.5,722.5C 1389.77,721.292 1389.43,719.959 1389.5,718.5C 1390.5,718.5 1391.5,718.5 1392.5,718.5C 1392.83,722.5 1393.17,722.5 1393.5,718.5C 1394.83,718.5 1396.17,718.5 1397.5,718.5C 1397.5,719.833 1397.5,721.167 1397.5,722.5 Z"/></g>
<g><path style="opacity:1" fill="#c29b65" d="M 1426.5,717.5 C 1427.59,717.62 1428.25,718.287 1428.5,719.5C 1428.17,720.167 1427.83,720.833 1427.5,721.5C 1425.97,721.994 1424.64,722.661 1423.5,723.5C 1419.21,722.705 1414.88,722.372 1410.5,722.5C 1410.46,721.417 1410.13,720.417 1409.5,719.5C 1415.02,717.789 1420.69,717.122 1426.5,717.5 Z"/></g>
<g><path style="opacity:1" fill="#beae95" d="M 929.5,679.5 C 928.315,680.857 927.315,682.357 926.5,684C 926.712,691.208 926.879,698.708 927,706.5C 928.023,707.6 928.523,708.933 928.5,710.5C 925.517,714.355 925.85,717.855 929.5,721C 934.823,721.499 940.156,721.666 945.5,721.5C 960.337,722.573 975.337,722.573 990.5,721.5C 990.5,722.167 990.5,722.833 990.5,723.5C 969.164,723.667 947.831,723.5 926.5,723C 925.29,721.961 924.29,720.794 923.5,719.5C 923.168,706.816 923.501,694.149 924.5,681.5C 925.842,679.995 927.508,679.328 929.5,679.5 Z"/></g>
<g><path style="opacity:0.749" fill="#d9d4c7" d="M 1448.5,692.5 C 1449.33,703.659 1449.83,714.993 1450,726.5C 1450.31,727.308 1450.81,727.975 1451.5,728.5C 1453.21,727.391 1453.88,728.058 1453.5,730.5C 1453.17,730.5 1452.83,730.5 1452.5,730.5C 1451.5,730.5 1450.5,730.5 1449.5,730.5C 1449.58,731.93 1449.25,733.264 1448.5,734.5C 1444.89,735.489 1441.23,735.823 1437.5,735.5C 1438.19,714.104 1437.52,692.771 1435.5,671.5C 1438.61,670.267 1441.61,670.433 1444.5,672C 1442.19,672.497 1439.86,672.663 1437.5,672.5C 1438.36,691.487 1439.02,710.487 1439.5,729.5C 1442.9,729.82 1446.23,729.487 1449.5,728.5C 1448.52,716.551 1448.19,704.551 1448.5,692.5 Z"/></g>
<g><path style="opacity:0.749" fill="#c7c6c3" d="M 1104.5,682.5 C 1105.5,696.99 1105.83,711.657 1105.5,726.5C 1105.5,726.833 1105.5,727.167 1105.5,727.5C 1104.5,727.5 1103.5,727.5 1102.5,727.5C 1102.5,728.5 1102.5,729.5 1102.5,730.5C 1104.17,730.5 1105.83,730.5 1107.5,730.5C 1109.11,728.925 1111.11,728.259 1113.5,728.5C 1113.5,729.5 1113.5,730.5 1113.5,731.5C 1114.55,731.649 1115.55,731.483 1116.5,731C 1119.2,727.854 1119.87,728.354 1118.5,732.5C 1115.42,732.26 1112.42,732.593 1109.5,733.5C 1105.4,733.227 1101.74,732.227 1098.5,730.5C 1098.5,729.5 1098.5,728.5 1098.5,727.5C 1026.66,727.833 954.998,727.499 883.5,726.5C 919.833,726.5 956.167,726.5 992.5,726.5C 1030,726.832 1067.34,726.498 1104.5,725.5C 1104.5,711.167 1104.5,696.833 1104.5,682.5 Z"/></g>
<g><path style="opacity:0.251" fill="#686764" d="M 860.5,726.5 C 868.167,726.5 875.833,726.5 883.5,726.5C 954.998,727.499 1026.66,727.833 1098.5,727.5C 1098.5,728.5 1098.5,729.5 1098.5,730.5C 1097.25,730.423 1096.42,729.756 1096,728.5C 1017,728.5 938,728.5 859,728.5C 856.782,730.034 854.615,731.701 852.5,733.5C 848.489,734.227 844.489,734.893 840.5,735.5C 836.511,734.893 832.511,734.227 828.5,733.5C 827.388,732.735 826.721,731.735 826.5,730.5C 828.035,731.354 829.368,731.354 830.5,730.5C 837.412,731.462 844.412,731.795 851.5,731.5C 852.451,730.081 852.784,728.415 852.5,726.5C 855.167,726.5 857.833,726.5 860.5,726.5 Z"/></g>
<g><path style="opacity:1" fill="#aea79a" d="M 492.5,729.5 C 492.5,729.167 492.5,728.833 492.5,728.5C 492.833,728.5 493.167,728.5 493.5,728.5C 494.833,728.5 496.167,728.5 497.5,728.5C 502.5,728.5 507.5,728.5 512.5,728.5C 512.5,728.833 512.5,729.167 512.5,729.5C 511.542,729.953 510.708,730.619 510,731.5C 508.13,730.257 505.964,729.59 503.5,729.5C 501.048,729.539 499.048,730.206 497.5,731.5C 496.221,730.032 494.554,729.365 492.5,729.5 Z"/></g>
<g><path style="opacity:0.969" fill="#7c7876" d="M 1105.5,727.5 C 1107.05,727.821 1107.71,728.821 1107.5,730.5C 1105.83,730.5 1104.17,730.5 1102.5,730.5C 1102.5,729.5 1102.5,728.5 1102.5,727.5C 1103.5,727.5 1104.5,727.5 1105.5,727.5 Z"/></g>
<g><path style="opacity:0.353" fill="#4f4b42" d="M 492.5,729.5 C 494.554,729.365 496.221,730.032 497.5,731.5C 497.5,731.833 497.5,732.167 497.5,732.5C 495.336,732.279 493.67,731.279 492.5,729.5 Z"/></g>
<g><path style="opacity:0.251" fill="#595751" d="M 512.5,728.5 C 544.833,728.5 577.167,728.5 609.5,728.5C 609.833,728.5 610.167,728.5 610.5,728.5C 612.167,728.5 613.833,728.5 615.5,728.5C 615.5,729.833 615.5,731.167 615.5,732.5C 613.876,732.64 612.71,731.973 612,730.5C 578.837,730.512 545.671,730.512 512.5,730.5C 512.5,730.167 512.5,729.833 512.5,729.5C 512.5,729.167 512.5,728.833 512.5,728.5 Z"/></g>
<g><path style="opacity:0.063" fill="#65625d" d="M 830.5,730.5 C 829.368,731.354 828.035,731.354 826.5,730.5C 824.549,730.773 823.049,730.107 822,728.5C 762.84,729.877 703.173,730.877 643,731.5C 639.582,731.481 636.249,731.147 633,730.5C 630.647,733.572 627.48,735.239 623.5,735.5C 621.018,734.933 618.684,734.266 616.5,733.5C 620.514,733.666 624.514,733.499 628.5,733C 629.38,731.644 629.714,730.144 629.5,728.5C 649.34,728.83 669.007,728.497 688.5,727.5C 704.833,727.5 721.167,727.5 737.5,727.5C 738.997,728.306 740.664,728.972 742.5,729.5C 743.784,728.415 745.284,727.748 747,727.5C 757.9,728.337 768.733,728.67 779.5,728.5C 794.447,726.668 809.447,726.168 824.5,727C 826.692,727.926 828.692,729.093 830.5,730.5 Z"/></g>
<g><path style="opacity:0.251" fill="#757270" d="M 1203.5,728.5 C 1205.83,728.5 1208.17,728.5 1210.5,728.5C 1247,729.498 1283.66,729.832 1320.5,729.5C 1324.06,730.423 1327.73,730.756 1331.5,730.5C 1261.5,730.504 1191.5,730.504 1121.5,730.5C 1148.76,728.607 1176.09,727.941 1203.5,728.5 Z"/></g>
<g><path style="opacity:0.22" fill="#d9d1c5" d="M 512.5,729.5 C 512.5,729.833 512.5,730.167 512.5,730.5C 509.961,732.232 506.961,733.232 503.5,733.5C 501.591,732.652 499.591,732.318 497.5,732.5C 497.5,732.167 497.5,731.833 497.5,731.5C 499.048,730.206 501.048,729.539 503.5,729.5C 505.964,729.59 508.13,730.257 510,731.5C 510.708,730.619 511.542,729.953 512.5,729.5 Z"/></g>
<g><path style="opacity:0.251" fill="#8a898a" d="M 1414.5,730.5 C 1420.83,730.5 1427.17,730.5 1433.5,730.5C 1433.5,730.833 1433.5,731.167 1433.5,731.5C 1428.88,732.314 1424.21,732.647 1419.5,732.5C 1390.83,732.5 1362.17,732.5 1333.5,732.5C 1360.15,730.509 1387.15,729.842 1414.5,730.5 Z"/></g>
<g><path style="opacity:0.118" fill="#110812" d="M 1433.5,731.5 C 1434.17,731.5 1434.5,731.833 1434.5,732.5C 1429.4,733.8 1424.4,733.8 1419.5,732.5C 1424.21,732.647 1428.88,732.314 1433.5,731.5 Z"/></g>
</svg>
