<?xml version="1.0" standalone="no"?>
<!DOCTYPE svg PUBLIC "-//W3C//DTD SVG 20010904//EN"
 "http://www.w3.org/TR/2001/REC-SVG-20010904/DTD/svg10.dtd">
<svg version="1.0" xmlns="http://www.w3.org/2000/svg"
 width="1890.000000pt" height="1417.000000pt" viewBox="0 0 1890.000000 1417.000000"
 preserveAspectRatio="xMidYMid meet">

<g transform="translate(0.000000,1417.000000) scale(0.100000,-0.100000)"
fill="#000000" stroke="none">
<path d="M8340 7532 c-14 -2 -35 -13 -48 -25 -22 -21 -34 -22 -200 -24 -592
-5 -1054 -12 -1374 -18 -269 -5 -370 -4 -386 4 -12 6 -46 16 -76 22 -43 8 -63
6 -97 -6 -76 -27 -258 -36 -496 -25 -120 5 -291 10 -381 10 -93 0 -172 4 -183
10 -11 6 -45 8 -84 4 -97 -10 -96 -5 -92 -323 1 -159 6 -264 12 -270 6 -6 78
-13 160 -15 83 -3 238 -10 345 -15 179 -8 346 -7 571 3 83 4 87 3 97 -19 10
-21 19 -23 94 -27 92 -5 108 -2 108 18 0 16 57 17 730 19 217 0 530 6 695 14
332 14 536 8 574 -16 36 -23 142 -18 194 9 41 21 53 21 422 21 209 -1 594 -4
855 -7 261 -3 653 -8 870 -11 339 -4 395 -7 402 -20 7 -11 27 -15 77 -15 55 0
72 4 92 21 23 21 29 21 214 14 105 -4 636 -9 1180 -11 545 -1 1100 -8 1235
-13 135 -6 316 -11 402 -11 94 0 159 -4 163 -10 8 -12 85 -13 104 -1 13 8 13
19 2 75 -8 40 -14 160 -16 303 -1 131 -3 241 -4 245 0 3 -16 11 -35 18 -25 8
-50 8 -97 -2 -48 -9 -320 -12 -1079 -13 -558 -1 -1064 1 -1125 5 -64 3 -164 0
-240 -8 -83 -8 -228 -12 -398 -10 -243 3 -269 5 -278 21 -19 33 -64 47 -157
47 -86 0 -90 -1 -107 -27 l-18 -26 -511 7 c-281 4 -821 11 -1201 14 l-690 7
-45 26 c-44 26 -122 39 -180 31z m157 -37 c15 -10 43 -22 62 -27 31 -9 771
-20 2044 -32 l367 -4 19 24 c17 22 26 24 104 24 88 0 137 -13 137 -36 0 -7 17
-17 38 -21 52 -11 594 -8 667 3 38 6 354 7 860 3 896 -9 1389 -4 1545 13 162
17 150 36 150 -250 0 -172 4 -253 14 -292 8 -30 13 -58 10 -61 -9 -15 -67 -18
-92 -5 -21 10 -124 15 -452 20 -234 3 -498 9 -587 13 l-163 6 -2 36 -1 36 -4
-38 -4 -39 -980 5 c-760 4 -982 7 -994 17 -12 10 -15 10 -15 -2 0 -8 -9 -23
-19 -32 -16 -15 -30 -17 -73 -11 -30 4 -60 15 -70 25 -15 15 -29 17 -100 14
-46 -3 -94 -7 -108 -8 -13 -2 -148 0 -300 4 -151 5 -666 11 -1143 15 l-869 5
-34 -20 c-53 -33 -133 -37 -195 -10 -52 22 -56 22 -393 16 -188 -3 -626 -9
-974 -12 -612 -6 -633 -7 -646 -25 -12 -17 -24 -20 -87 -17 -66 3 -75 5 -84
26 l-10 23 -275 -7 c-195 -5 -339 -3 -495 7 -121 8 -260 14 -308 14 -82 0 -88
1 -93 22 -3 12 -4 134 -2 271 2 192 6 253 17 265 10 13 30 17 76 17 34 0 65
-3 69 -7 8 -8 402 -18 746 -18 215 0 251 2 293 19 54 20 139 16 189 -10 24
-12 113 -13 615 -4 324 6 626 10 673 8 47 -1 213 1 369 5 l283 7 31 26 c29 24
37 26 99 22 41 -3 78 -12 95 -23z"/>
<path d="M14363 7350 c0 -47 2 -66 4 -42 2 23 2 61 0 85 -2 23 -4 4 -4 -43z"/>
<path d="M8444 7240 c0 -102 2 -143 3 -92 2 50 2 134 0 185 -1 50 -3 9 -3 -93z"/>
<path d="M13190 7386 c0 -19 5 -38 10 -41 6 -4 10 8 10 29 0 19 -4 38 -10 41
-6 4 -10 -8 -10 -29z"/>
<path d="M5212 7398 c-30 -30 3 -77 40 -57 24 13 23 46 -1 59 -24 13 -24 13
-39 -2z"/>
<path d="M5302 7398 c-21 -21 -8 -68 19 -68 10 0 39 30 39 40 0 10 -29 40 -39
40 -4 0 -12 -5 -19 -12z"/>
<path d="M5400 7395 c-19 -23 -8 -50 22 -53 19 -2 28 2 33 18 12 39 -29 66
-55 35z"/>
<path d="M5512 7398 c-30 -30 3 -77 40 -57 24 13 23 46 -1 59 -24 13 -24 13
-39 -2z"/>
<path d="M5602 7398 c-21 -21 -8 -68 19 -68 10 0 39 30 39 40 0 10 -29 40 -39
40 -4 0 -12 -5 -19 -12z"/>
<path d="M5700 7395 c-19 -23 -8 -50 22 -53 19 -2 28 2 33 18 12 39 -29 66
-55 35z"/>
<path d="M6702 7398 c-30 -30 3 -77 40 -57 24 13 23 46 -1 59 -24 13 -24 13
-39 -2z"/>
<path d="M6792 7398 c-21 -21 -8 -68 19 -68 10 0 39 30 39 40 0 10 -29 40 -39
40 -4 0 -12 -5 -19 -12z"/>
<path d="M6890 7395 c-19 -23 -8 -50 22 -53 19 -2 28 2 33 18 12 39 -29 66
-55 35z"/>
<path d="M7002 7398 c-30 -30 3 -77 40 -57 24 13 23 46 -1 59 -24 13 -24 13
-39 -2z"/>
<path d="M7092 7398 c-21 -21 -8 -68 19 -68 10 0 39 30 39 40 0 10 -29 40 -39
40 -4 0 -12 -5 -19 -12z"/>
<path d="M7190 7395 c-19 -23 -8 -50 22 -53 19 -2 28 2 33 18 12 39 -29 66
-55 35z"/>
<path d="M12282 7378 c-30 -30 3 -77 40 -57 24 13 23 46 -1 59 -24 13 -24 13
-39 -2z"/>
<path d="M12372 7378 c-21 -21 -8 -68 19 -68 10 0 39 30 39 40 0 10 -29 40
-39 40 -4 0 -12 -5 -19 -12z"/>
<path d="M12470 7375 c-19 -23 -8 -50 22 -53 19 -2 28 2 33 18 12 39 -29 66
-55 35z"/>
<path d="M12582 7378 c-30 -30 3 -77 40 -57 24 13 23 46 -1 59 -24 13 -24 13
-39 -2z"/>
<path d="M12672 7378 c-21 -21 -8 -68 19 -68 10 0 39 30 39 40 0 10 -29 40
-39 40 -4 0 -12 -5 -19 -12z"/>
<path d="M12770 7375 c-19 -23 -8 -50 22 -53 19 -2 28 2 33 18 12 39 -29 66
-55 35z"/>
<path d="M9611 7366 c-8 -9 -11 -45 -8 -103 l3 -88 2 91 c1 54 7 95 14 102 7
7 9 12 6 12 -3 0 -11 -6 -17 -14z"/>
<path d="M13732 7368 c-30 -30 3 -77 40 -57 24 13 23 46 -1 59 -24 13 -24 13
-39 -2z"/>
<path d="M13822 7368 c-21 -21 -8 -68 19 -68 10 0 39 30 39 40 0 10 -29 40
-39 40 -4 0 -12 -5 -19 -12z"/>
<path d="M13920 7365 c-19 -23 -8 -50 22 -53 19 -2 28 2 33 18 12 39 -29 66
-55 35z"/>
<path d="M14032 7368 c-30 -30 3 -77 40 -57 24 13 23 46 -1 59 -24 13 -24 13
-39 -2z"/>
<path d="M14122 7368 c-21 -21 -8 -68 19 -68 10 0 39 30 39 40 0 10 -29 40
-39 40 -4 0 -12 -5 -19 -12z"/>
<path d="M14220 7365 c-19 -23 -8 -50 22 -53 19 -2 28 2 33 18 12 39 -29 66
-55 35z"/>
<path d="M9278 7363 c6 -2 18 -2 25 0 6 3 1 5 -13 5 -14 0 -19 -2 -12 -5z"/>
<path d="M6285 7196 c-5 -100 -4 -164 3 -183 8 -21 11 16 11 155 1 100 -1 182
-3 182 -2 0 -7 -69 -11 -154z"/>
<path d="M8281 7192 c0 -100 2 -151 9 -147 11 7 12 150 0 240 -5 47 -7 26 -9
-93z"/>
<path d="M11223 7255 c-1 -44 3 -123 7 -175 l7 -95 0 115 c1 63 -3 142 -7 175
l-7 60 0 -80z"/>
<path d="M5201 7296 c-17 -20 -4 -56 18 -56 28 0 47 28 34 48 -14 23 -37 26
-52 8z"/>
<path d="M5289 7294 c-17 -21 0 -49 32 -49 18 0 25 6 27 24 6 38 -34 55 -59
25z"/>
<path d="M5391 7296 c-9 -11 -10 -20 -1 -35 13 -26 46 -27 59 -3 20 38 -31 71
-58 38z"/>
<path d="M5501 7296 c-17 -20 -4 -56 18 -56 28 0 47 28 34 48 -14 23 -37 26
-52 8z"/>
<path d="M5589 7294 c-17 -21 0 -49 32 -49 18 0 25 6 27 24 6 38 -34 55 -59
25z"/>
<path d="M5691 7296 c-9 -11 -10 -20 -1 -35 13 -26 46 -27 59 -3 20 38 -31 71
-58 38z"/>
<path d="M6691 7296 c-17 -20 -4 -56 18 -56 28 0 47 28 34 48 -14 23 -37 26
-52 8z"/>
<path d="M6779 7294 c-17 -21 0 -49 32 -49 18 0 25 6 27 24 6 38 -34 55 -59
25z"/>
<path d="M6881 7296 c-9 -11 -10 -20 -1 -35 13 -26 46 -27 59 -3 20 38 -31 71
-58 38z"/>
<path d="M6991 7296 c-17 -20 -4 -56 18 -56 28 0 47 28 34 48 -14 23 -37 26
-52 8z"/>
<path d="M7079 7294 c-17 -21 0 -49 32 -49 18 0 25 6 27 24 6 38 -34 55 -59
25z"/>
<path d="M7181 7296 c-9 -11 -10 -20 -1 -35 13 -26 46 -27 59 -3 20 38 -31 71
-58 38z"/>
<path d="M6128 7220 c-5 -47 -7 -132 -7 -190 l2 -105 9 120 c4 66 7 152 6 190
l-3 70 -7 -85z"/>
<path d="M7462 7165 c0 -77 3 -158 7 -180 7 -33 9 -25 9 45 0 47 -4 128 -8
180 l-7 95 -1 -140z"/>
<path d="M10274 7160 c0 -74 1 -105 3 -67 2 37 2 97 0 135 -2 37 -3 6 -3 -68z"/>
<path d="M11058 7188 c-1 -57 0 -128 3 -158 4 -34 7 5 8 103 0 86 -1 157 -3
157 -2 0 -6 -46 -8 -102z"/>
<path d="M12271 7276 c-17 -20 -4 -56 18 -56 28 0 47 28 34 48 -14 23 -37 26
-52 8z"/>
<path d="M12359 7274 c-17 -21 0 -49 32 -49 18 0 25 6 27 24 6 38 -34 55 -59
25z"/>
<path d="M12461 7276 c-9 -11 -10 -20 -1 -35 13 -26 46 -27 59 -3 20 38 -31
71 -58 38z"/>
<path d="M12571 7276 c-17 -20 -4 -56 18 -56 28 0 47 28 34 48 -14 23 -37 26
-52 8z"/>
<path d="M12659 7274 c-17 -21 0 -49 32 -49 18 0 25 6 27 24 6 38 -34 55 -59
25z"/>
<path d="M12761 7276 c-9 -11 -10 -20 -1 -35 13 -26 46 -27 59 -3 20 38 -31
71 -58 38z"/>
<path d="M7322 7224 c-1 -33 -4 -110 -7 -170 -4 -90 -3 -101 6 -61 5 26 8 103
6 170 -1 67 -4 95 -5 61z"/>
<path d="M13721 7266 c-17 -20 -4 -56 18 -56 28 0 47 28 34 48 -14 23 -37 26
-52 8z"/>
<path d="M13809 7264 c-17 -21 0 -49 32 -49 18 0 25 6 27 24 6 38 -34 55 -59
25z"/>
<path d="M13911 7266 c-9 -11 -10 -20 -1 -35 13 -26 46 -27 59 -3 20 38 -31
71 -58 38z"/>
<path d="M14021 7266 c-17 -20 -4 -56 18 -56 28 0 47 28 34 48 -14 23 -37 26
-52 8z"/>
<path d="M14109 7264 c-17 -21 0 -49 32 -49 18 0 25 6 27 24 6 38 -34 55 -59
25z"/>
<path d="M14211 7266 c-9 -11 -10 -20 -1 -35 13 -26 46 -27 59 -3 20 38 -31
71 -58 38z"/>
<path d="M5083 7210 c0 -36 2 -50 4 -32 2 17 2 47 0 65 -2 17 -4 3 -4 -33z"/>
<path d="M13363 7185 c0 -49 3 -124 7 -165 7 -74 7 -74 7 35 1 61 -2 135 -7
165 -7 51 -7 48 -7 -35z"/>
<path d="M5193 7204 c-15 -39 38 -67 60 -32 8 12 7 21 -2 32 -17 21 -50 20
-58 0z"/>
<path d="M5493 7204 c-15 -39 38 -67 60 -32 8 12 7 21 -2 32 -17 21 -50 20
-58 0z"/>
<path d="M6683 7204 c-15 -39 38 -67 60 -32 8 12 7 21 -2 32 -17 21 -50 20
-58 0z"/>
<path d="M6983 7204 c-15 -39 38 -67 60 -32 8 12 7 21 -2 32 -17 21 -50 20
-58 0z"/>
<path d="M12021 7104 c0 -65 4 -128 9 -139 6 -12 7 34 3 115 -3 74 -7 137 -9
139 -2 2 -4 -49 -3 -115z"/>
<path d="M12173 7110 c-1 -63 3 -126 7 -140 10 -32 10 73 0 180 -7 72 -7 71
-7 -40z"/>
<path d="M5291 7197 c-14 -17 -6 -43 16 -51 22 -9 45 13 41 38 -4 25 -40 33
-57 13z"/>
<path d="M5390 7195 c-18 -22 -1 -50 31 -50 20 0 24 5 24 30 0 23 -5 31 -21
33 -11 2 -27 -4 -34 -13z"/>
<path d="M5591 7197 c-14 -17 -6 -43 16 -51 22 -9 45 13 41 38 -4 25 -40 33
-57 13z"/>
<path d="M5690 7195 c-18 -22 -1 -50 31 -50 20 0 24 5 24 30 0 23 -5 31 -21
33 -11 2 -27 -4 -34 -13z"/>
<path d="M6781 7197 c-14 -17 -6 -43 16 -51 22 -9 45 13 41 38 -4 25 -40 33
-57 13z"/>
<path d="M6880 7195 c-18 -22 -1 -50 31 -50 20 0 24 5 24 30 0 23 -5 31 -21
33 -11 2 -27 -4 -34 -13z"/>
<path d="M7081 7197 c-14 -17 -6 -43 16 -51 22 -9 45 13 41 38 -4 25 -40 33
-57 13z"/>
<path d="M7180 7195 c-18 -22 -1 -50 31 -50 20 0 24 5 24 30 0 23 -5 31 -21
33 -11 2 -27 -4 -34 -13z"/>
<path d="M12263 7184 c-15 -39 38 -67 60 -32 8 12 7 21 -2 32 -17 21 -50 20
-58 0z"/>
<path d="M12563 7184 c-15 -39 38 -67 60 -32 8 12 7 21 -2 32 -17 21 -50 20
-58 0z"/>
<path d="M12361 7177 c-24 -29 17 -70 46 -46 8 7 13 22 11 33 -4 25 -40 33
-57 13z"/>
<path d="M12460 7175 c-18 -22 -1 -50 31 -50 20 0 24 5 24 30 0 23 -5 31 -21
33 -11 2 -27 -4 -34 -13z"/>
<path d="M12661 7177 c-24 -29 17 -70 46 -46 8 7 13 22 11 33 -4 25 -40 33
-57 13z"/>
<path d="M12760 7175 c-18 -22 -1 -50 31 -50 20 0 24 5 24 30 0 23 -5 31 -21
33 -11 2 -27 -4 -34 -13z"/>
<path d="M13713 7174 c-15 -39 38 -67 60 -32 8 12 7 21 -2 32 -17 21 -50 20
-58 0z"/>
<path d="M14013 7174 c-15 -39 38 -67 60 -32 8 12 7 21 -2 32 -17 21 -50 20
-58 0z"/>
<path d="M13811 7167 c-24 -29 17 -70 46 -46 8 7 13 22 11 33 -4 25 -40 33
-57 13z"/>
<path d="M13910 7165 c-18 -22 -1 -50 31 -50 20 0 24 5 24 30 0 23 -5 31 -21
33 -11 2 -27 -4 -34 -13z"/>
<path d="M14111 7167 c-24 -29 17 -70 46 -46 8 7 13 22 11 33 -4 25 -40 33
-57 13z"/>
<path d="M14210 7165 c-18 -22 -1 -50 31 -50 20 0 24 5 24 30 0 23 -5 31 -21
33 -11 2 -27 -4 -34 -13z"/>
<path d="M9708 7153 c34 -2 88 -2 120 0 31 2 3 3 -63 3 -66 0 -92 -1 -57 -3z"/>
<path d="M5195 7106 c-25 -18 -11 -56 20 -56 21 0 35 17 35 40 0 19 -37 30
-55 16z"/>
<path d="M5495 7106 c-25 -18 -11 -56 20 -56 21 0 35 17 35 40 0 19 -37 30
-55 16z"/>
<path d="M6685 7106 c-25 -18 -11 -56 20 -56 21 0 35 17 35 40 0 19 -37 30
-55 16z"/>
<path d="M6985 7106 c-25 -18 -11 -56 20 -56 21 0 35 17 35 40 0 19 -37 30
-55 16z"/>
<path d="M5284 7095 c-10 -25 4 -45 30 -45 13 0 26 7 30 15 9 25 -5 45 -30 45
-14 0 -27 -7 -30 -15z"/>
<path d="M5385 7089 c-5 -13 -2 -27 8 -36 24 -24 59 -8 55 25 -4 36 -53 45
-63 11z"/>
<path d="M5584 7095 c-10 -25 4 -45 30 -45 13 0 26 7 30 15 9 25 -5 45 -30 45
-14 0 -27 -7 -30 -15z"/>
<path d="M5685 7089 c-5 -13 -2 -27 8 -36 24 -24 59 -8 55 25 -4 36 -53 45
-63 11z"/>
<path d="M6774 7095 c-10 -25 4 -45 30 -45 13 0 26 7 30 15 9 25 -5 45 -30 45
-14 0 -27 -7 -30 -15z"/>
<path d="M6875 7089 c-5 -13 -2 -27 8 -36 24 -24 59 -8 55 25 -4 36 -53 45
-63 11z"/>
<path d="M7074 7095 c-10 -25 4 -45 30 -45 13 0 26 7 30 15 9 25 -5 45 -30 45
-14 0 -27 -7 -30 -15z"/>
<path d="M7175 7089 c-5 -13 -2 -27 8 -36 24 -24 59 -8 55 25 -4 36 -53 45
-63 11z"/>
<path d="M12265 7086 c-25 -18 -11 -56 20 -56 21 0 35 17 35 40 0 19 -37 30
-55 16z"/>
<path d="M12565 7086 c-25 -18 -11 -56 20 -56 21 0 35 17 35 40 0 19 -37 30
-55 16z"/>
<path d="M12354 7075 c-10 -25 4 -45 30 -45 25 0 39 20 30 45 -4 8 -17 15 -30
15 -14 0 -27 -7 -30 -15z"/>
<path d="M12455 7069 c-9 -29 15 -53 44 -44 17 5 21 13 19 33 -4 36 -53 45
-63 11z"/>
<path d="M12654 7075 c-10 -25 4 -45 30 -45 13 0 26 7 30 15 9 25 -5 45 -30
45 -14 0 -27 -7 -30 -15z"/>
<path d="M12755 7069 c-9 -29 15 -53 44 -44 17 5 21 13 19 33 -4 36 -53 45
-63 11z"/>
<path d="M13715 7076 c-25 -18 -11 -56 20 -56 21 0 35 17 35 40 0 19 -37 30
-55 16z"/>
<path d="M14015 7076 c-25 -18 -11 -56 20 -56 21 0 35 17 35 40 0 19 -37 30
-55 16z"/>
<path d="M13804 7065 c-10 -25 4 -45 30 -45 25 0 39 20 30 45 -4 8 -17 15 -30
15 -14 0 -27 -7 -30 -15z"/>
<path d="M13905 7059 c-9 -29 15 -53 44 -44 17 5 21 13 19 33 -4 36 -53 45
-63 11z"/>
<path d="M14104 7065 c-10 -25 4 -45 30 -45 13 0 26 7 30 15 9 25 -5 45 -30
45 -14 0 -27 -7 -30 -15z"/>
<path d="M14205 7059 c-9 -29 15 -53 44 -44 17 5 21 13 19 33 -4 36 -53 45
-63 11z"/>
<path d="M9513 7033 c37 -2 97 -2 135 0 37 2 6 3 -68 3 -74 0 -105 -1 -67 -3z"/>
<path d="M5190 7005 c-18 -22 -8 -50 19 -50 32 0 49 28 32 49 -17 20 -35 20
-51 1z"/>
<path d="M5286 7007 c-26 -19 -13 -57 20 -57 28 0 42 25 27 48 -13 22 -26 24
-47 9z"/>
<path d="M5490 7005 c-18 -22 -8 -50 19 -50 32 0 49 28 32 49 -17 20 -35 20
-51 1z"/>
<path d="M5586 7007 c-26 -19 -13 -57 20 -57 28 0 42 25 27 48 -13 22 -26 24
-47 9z"/>
<path d="M6680 7005 c-18 -22 -8 -50 19 -50 32 0 49 28 32 49 -17 20 -35 20
-51 1z"/>
<path d="M6776 7007 c-26 -19 -13 -57 20 -57 28 0 42 25 27 48 -13 22 -26 24
-47 9z"/>
<path d="M6980 7005 c-18 -22 -8 -50 19 -50 32 0 49 28 32 49 -17 20 -35 20
-51 1z"/>
<path d="M7076 7007 c-26 -19 -13 -57 20 -57 28 0 42 25 27 48 -13 22 -26 24
-47 9z"/>
<path d="M5390 6995 c-6 -8 -9 -23 -5 -35 10 -31 59 -24 63 9 6 37 -34 55 -58
26z"/>
<path d="M5690 6995 c-6 -8 -9 -23 -5 -35 10 -31 59 -24 63 9 6 37 -34 55 -58
26z"/>
<path d="M6880 6995 c-6 -8 -9 -23 -5 -35 10 -31 59 -24 63 9 6 37 -34 55 -58
26z"/>
<path d="M7180 6995 c-6 -8 -9 -23 -5 -35 10 -31 59 -24 63 9 6 37 -34 55 -58
26z"/>
<path d="M12260 6985 c-18 -22 -8 -50 19 -50 32 0 49 28 32 49 -17 20 -35 20
-51 1z"/>
<path d="M12356 6987 c-26 -19 -13 -57 20 -57 28 0 42 25 27 48 -13 22 -26 24
-47 9z"/>
<path d="M12560 6985 c-18 -22 -8 -50 19 -50 32 0 49 28 32 49 -17 20 -35 20
-51 1z"/>
<path d="M12656 6987 c-26 -19 -13 -57 20 -57 28 0 42 25 27 48 -13 22 -26 24
-47 9z"/>
<path d="M12460 6975 c-6 -8 -9 -23 -5 -35 10 -31 59 -24 63 9 6 37 -34 55
-58 26z"/>
<path d="M12760 6975 c-6 -8 -9 -23 -5 -35 10 -31 59 -24 63 9 6 37 -34 55
-58 26z"/>
<path d="M13710 6975 c-18 -22 -8 -50 19 -50 32 0 49 28 32 49 -17 20 -35 20
-51 1z"/>
<path d="M13806 6977 c-26 -19 -13 -57 20 -57 28 0 42 25 27 48 -13 22 -26 24
-47 9z"/>
<path d="M14010 6975 c-18 -22 -8 -50 19 -50 32 0 49 28 32 49 -17 20 -35 20
-51 1z"/>
<path d="M14106 6977 c-26 -19 -13 -57 20 -57 28 0 42 25 27 48 -13 22 -26 24
-47 9z"/>
<path d="M14366 6974 c-10 -25 -7 -102 4 -109 6 -4 10 18 10 59 0 67 -3 78
-14 50z"/>
<path d="M13910 6965 c-6 -8 -9 -23 -5 -35 10 -31 59 -24 63 9 6 37 -34 55
-58 26z"/>
<path d="M14210 6965 c-6 -8 -9 -23 -5 -35 10 -31 59 -24 63 9 6 37 -34 55
-58 26z"/>
<path d="M10137 6923 c18 -2 50 -2 70 0 21 2 7 4 -32 4 -38 0 -55 -2 -38 -4z"/>
</g>
</svg>
